<?xml version="1.0" encoding="UTF-8" standalone="no"?>
<!-- Created with Inkscape (http://www.inkscape.org/) -->

<svg
   version="1.1"
   id="svg1"
   width="1024"
   height="1024"
   viewBox="0 0 1024 1024"
   xmlns="http://www.w3.org/2000/svg"
   xmlns:svg="http://www.w3.org/2000/svg">
  <defs
     id="defs1" />
  <g
     id="g1">
    <g
       id="g2">
      <path
         style="fill-opacity:1;fill:#1e7bb5"
         d="M 646,345.63167 V 313 h 3.03984 c 4.0759,0 10.34661,3.31567 12.72299,6.72736 3.58665,5.14922 4.23717,9.17314 4.23717,26.20997 0,15.28361 -0.18327,16.9976 -2.25,21.04281 -2.92118,5.71762 -8.39791,10.02882 -13.63194,10.73085 L 646,378.26334 Z"
         id="path34" />
      <path
         style="fill-opacity:1;fill:#1e7bb5"
         d="m 371.23559,378.02099 c -5.44257,-1.29092 -10.82259,-5.5364 -13.17564,-10.39714 -2.04728,-4.22913 -2.16308,-5.67684 -1.87115,-23.39301 0.30805,-18.69368 0.33905,-18.92694 3.06232,-23.03811 C 362.30216,316.58672 368.30389,313 372.96016,313 H 376 v 33 c 0,18.15 -0.3375,32.95394 -0.75,32.89764 -0.4125,-0.0563 -2.21898,-0.45079 -4.01441,-0.87665 z"
         id="path33" />
      <path
         style="fill-opacity:1.0;fill:#8c8c8c"
         d="m 578.57848,354.46409 c 5.80798,-3.58274 10.99784,-11.45598 12.01275,-18.22387 2.27784,-15.18973 -9.53746,-29.19559 -24.78293,-29.37769 -14.61003,-0.17451 -25.7754,11.04325 -25.79853,25.91959 -0.0117,7.49177 1.5459,11.61342 6.43275,17.02258 5.75511,6.37022 10.62937,8.3553 19.63596,7.99688 6.387,-0.25417 8.35224,-0.77888 12.5,-3.33749 z"
         id="path32" />
      <path
         style="fill-opacity:1.0;fill:#8c8c8c"
         d="m 468.11753,355.20726 c 9.62279,-5.027 14.59358,-14.26358 13.6046,-25.27965 -1.6265,-18.11736 -19.87698,-28.46835 -36.15357,-20.50496 -9.33834,4.56883 -14.57958,13.21093 -14.55879,24.00549 0.0179,9.27184 6.74651,19.37995 15.41251,23.15343 1.69275,0.73708 6.06383,1.35776 9.71353,1.37929 5.36948,0.0317 7.65598,-0.4938 11.98172,-2.7536 z"
         id="path31" />
      <path
         id="path35"
         style="fill:#1e7bb5"
         d="m 510.64062,156 c -19.8968,0 -33.01633,21.44998 -24.17382,39.52344 C 489.10835,200.92257 496.5844,208 499.64453,208 500.7383,208 501,211.65841 501,226.90234 v 18.90039 l -25.75,0.45118 c -29.24429,0.51204 -33.91851,1.37772 -48.72266,9.02148 -11.74831,6.06595 -24.68477,19.15555 -30.36523,30.72461 -7.7956,15.87687 -8.16225,18.77533 -8.15625,64.41016 0.003,23.20162 0.41891,41.58135 0.98828,43.63086 2.01453,7.25153 8.15075,13.2758 16.4375,16.14062 4.69562,1.62333 12.40303,1.75496 104.63672,1.78516 109.05407,0.0358 105.21199,0.23477 113.63281,-5.86524 2.43771,-1.76587 5.06956,-5.00727 6.66406,-8.20703 L 633,392.60742 v -41.64453 c 0,-47.46445 -0.32353,-50.04539 -8.18164,-65.25 -4.97759,-9.6311 -17.7299,-23.08872 -27.08984,-28.58984 C 583.0329,248.48598 571.00678,246.08236 542.25,246.03516 L 521,246 v -18.48828 -18.48633 l 3.91992,-2.47461 c 6.89193,-4.35068 11.92147,-12.62113 12.78906,-21.02734 C 539.25132,170.57961 525.88409,156 510.64062,156 Z" />
      <path
         style="fill-opacity:1;fill:#1e2d3d"
         d="M 493.71578,588.7017 C 492.90381,586.58576 483.56067,574.59816 469.00745,557 c -7.50479,-9.075 -20.34373,-24.825 -28.53098,-35 -15.38995,-19.12642 -31.65309,-38.15672 -32.1682,-37.6416 -0.38167,0.38167 4.73776,28.07369 8.61241,46.5863 1.66279,7.94459 2.86678,14.60117 2.67554,14.79241 -0.29566,0.29566 -27.27718,-15.79855 -40.17912,-23.96645 -5.74581,-3.63752 -9.16284,-8.0667 -10.86801,-14.08716 C 361.43074,482.5507 353,452.23131 353,451.76447 c 0,-0.31647 6.93898,-3.52034 15.41995,-7.11971 l 15.41995,-6.54431 38.62915,-0.15917 38.62915,-0.15916 6.2009,4.81848 c 3.41049,2.65017 14.23809,11.36169 24.06132,19.35894 9.82323,7.99726 18.24081,14.54046 18.70573,14.54046 0.46492,0 11.32773,-8.36645 24.13958,-18.59211 12.81185,-10.22567 24.27719,-19.11317 25.47853,-19.75 C 561.22236,437.34253 572.52917,437 597.90547,437 h 36.03695 l 7.77879,2.8443 c 16.06149,5.87285 27.34612,11.36106 26.84737,13.05705 -0.25856,0.87926 -2.3329,8.79865 -4.60962,17.59865 -5.52283,21.34681 -10.76554,39.2333 -12.43092,42.41043 -2.38826,4.55618 -7.67234,8.72178 -22.96962,18.10763 -8.21786,5.04219 -17.55536,10.9426 -20.75,13.11204 -3.19463,2.16943 -5.80842,3.50447 -5.80842,2.96676 0,-0.81771 4.77802,-26.30411 10.42294,-55.59686 0.74192,-3.85 1.28166,-7.08111 1.19942,-7.18025 C 613.21575,483.82959 588.9342,512.3498 570.4742,535 c -11.43043,14.025 -24.22321,29.55 -28.4284,34.5 -4.20519,4.95 -9.58986,11.5875 -11.96594,14.75 l -4.32015,5.75 h -15.77287 c -12.00872,0 -15.89176,-0.30983 -16.27106,-1.2983 z"
         id="path29" />
      <path
         style="fill:#fffffd;fill-opacity:1"
         d="m 149.10212,750.71344 c 6.50782,-4.37934 7.43957,-14.8345 1.87731,-21.0653 L 148.16906,726.5 134.58453,726.17252 121,725.84504 V 739.42252 753 h 12.35212 c 11.21076,0 12.66608,-0.21128 15.75,-2.28656 z"
         id="path16" />
      <ellipse
         style="opacity:1;fill:#ffffff;fill-opacity:1;fill-rule:evenodd;stroke:#000000;stroke-width:1.16822"
         id="path36"
         cx="453"
         cy="334"
         rx="22.915892"
         ry="21.915892" />
      <ellipse
         style="fill:#ffffff;fill-opacity:1;fill-rule:evenodd;stroke:#000000;stroke-width:1.16822"
         id="path36-9"
         cx="572.5"
         cy="332.5"
         rx="22.915892"
         ry="21.915892" />
    </g>
  </g>
</svg>
