<?xml version="1.0" encoding="UTF-8" standalone="no"?>
<!-- Created with Inkscape (http://www.inkscape.org/) -->

<svg
   version="1.1"
   id="svg1"
   width="315.58426"
   height="434"
   viewBox="0 0 315.58426 434"
   xmlns="http://www.w3.org/2000/svg"
   xmlns:svg="http://www.w3.org/2000/svg">
  <defs
     id="defs1" />
  <g
     id="g1"
     transform="translate(-225,-248)">
    <g
       id="g39">
      <path
         style="fill:#1e2d3d;fill-opacity:1"
         d="m 469.90625,529 c -25.3763,0 -36.68456,0.34284 -38.22266,1.1582 -1.20134,0.63683 -12.66666,9.52433 -25.47851,19.75 -12.81185,10.22566 -23.67375,18.5918 -24.13867,18.5918 -0.46492,0 -8.88185,-6.54376 -18.70508,-14.54102 -9.82323,-7.99725 -20.65201,-16.70725 -24.0625,-19.35742 l -6.20117,-4.82031 -38.62891,0.16016 -38.62891,0.1582 -15.41992,6.54492 C 231.93895,540.2439 225,543.4472 225,543.76367 c 0,0.46684 8.43048,30.78712 15.54883,55.91992 1.70517,6.02046 5.12333,10.45037 10.86914,14.08789 12.90194,8.1679 39.88207,24.26051 40.17773,23.96485 0.19124,-0.19124 -1.01299,-6.84643 -2.67578,-14.79102 -3.87465,-18.51261 -8.993,-46.20427 -8.61133,-46.58593 0.51511,-0.51513 16.77802,18.5142 32.16797,37.64062 8.18725,10.175 21.02646,25.925 28.53125,35 14.55322,17.59816 23.89506,29.58523 24.70703,31.70117 0.3793,0.98847 4.26277,1.29883 16.27149,1.29883 h 15.77344 l 4.32031,-5.75 c 2.37608,-3.1625 7.75965,-9.8 11.96484,-14.75 4.20519,-4.95 16.99926,-20.475 28.42969,-34.5 18.46,-22.6502 42.74183,-51.16985 43.14844,-50.67969 0.0822,0.0991 -0.4573,3.32969 -1.19922,7.17969 C 478.77891,612.79275 474,638.27995 474,639.09766 c 0,0.53771 2.61396,-0.79737 5.80859,-2.9668 3.19464,-2.16944 12.53214,-8.07109 20.75,-13.11328 15.29728,-9.38585 20.58049,-13.55124 22.96875,-18.10742 1.66538,-3.17713 6.90881,-21.06335 12.43164,-42.41016 2.27672,-8.8 4.35082,-16.72035 4.60938,-17.59961 0.49875,-1.69599 -10.78617,-7.18379 -26.84766,-13.05664 L 505.94336,529 Z"
         id="path39" />
      <path
         style="fill:#1e7bb5;fill-opacity:1"
         d="m 518,405 v 32.63086 32.63281 l 4.11719,-0.55273 c 5.23403,-0.70203 10.71163,-5.01285 13.63281,-10.73047 2.06673,-4.04521 2.25,-5.75936 2.25,-21.04297 0,-17.03683 -0.64968,-21.06172 -4.23633,-26.21094 C 531.38729,408.31487 525.11496,405 521.03906,405 Z"
         id="path38" />
      <path
         style="fill:#1e7bb5;fill-opacity:1"
         d="m 244.96094,405 c -4.65627,0 -10.65795,3.58735 -13.70899,8.19336 -2.72327,4.11117 -2.75445,4.34343 -3.0625,23.03711 -0.29193,17.71617 -0.17618,19.16345 1.8711,23.39258 2.35305,4.86074 7.73321,9.10751 13.17578,10.39843 1.79543,0.42586 3.60117,0.82066 4.01367,0.87696 C 247.6625,470.95474 248,456.15 248,438 v -33 z"
         id="path37" />
      <path
         style="fill:#1e7bb5;fill-opacity:1"
         d="m 382.64062,248 c -19.89679,0 -33.01633,21.44998 -24.17382,39.52344 C 361.10835,292.92257 368.5844,300 371.64453,300 372.7383,300 373,303.65841 373,318.90234 v 18.90039 l -25.75,0.45118 c -29.24429,0.51204 -33.91851,1.37772 -48.72266,9.02148 -11.74831,6.06595 -24.68477,19.15555 -30.36523,30.72461 -7.7956,15.87687 -8.16225,18.77533 -8.15625,64.41016 0.003,23.20162 0.41891,41.58135 0.98828,43.63086 2.01453,7.25153 8.15075,13.2758 16.4375,16.14062 4.69562,1.62333 12.40303,1.75496 104.63672,1.78516 109.05407,0.0358 105.21199,0.23477 113.63281,-5.86524 2.43771,-1.76587 5.06956,-5.00727 6.66406,-8.20703 L 505,484.60742 v -41.64453 c 0,-47.46445 -0.32353,-50.04539 -8.18164,-65.25 -4.97759,-9.6311 -17.7299,-23.08872 -27.08984,-28.58984 C 455.0329,340.48598 443.00678,338.08236 414.25,338.03516 L 393,338 v -18.48828 -18.48633 l 3.91992,-2.47461 c 6.89193,-4.35068 11.92147,-12.62113 12.78906,-21.02734 C 411.25132,262.57961 397.88411,248 382.64062,248 Z"
         id="path34" />
      <ellipse
         style="fill:#ffffff;fill-opacity:1;fill-rule:evenodd;stroke:#000000"
         id="path36"
         cx="313"
         cy="430"
         rx="24"
         ry="22" />
      <g
         id="g37">
        <ellipse
           style="fill:#ffffff;fill-opacity:1;fill-rule:evenodd;stroke:#000000"
           id="path36-5"
           cx="449.5"
           cy="428.5"
           rx="24"
           ry="22" />
      </g>
    </g>
  </g>
</svg>
