<?xml version="1.0" encoding="UTF-8" standalone="no"?>
<!-- Created with Inkscape (http://www.inkscape.org/) -->

<svg
   version="1.1"
   id="svg1"
   width="1024"
   height="1024"
   viewBox="0 0 1024 1024"
   xmlns="http://www.w3.org/2000/svg"
   xmlns:svg="http://www.w3.org/2000/svg">
  <defs
     id="defs1" />
  <g
     id="g1">
    <g
       id="g2">
      <path
         style="fill-opacity:1.0;fill:#8c8c8c"
         d="m 218.47909,829.24943 c -2.7615,-0.98284 -6.47182,-2.82013 -8.24517,-4.08286 l -3.22425,-2.29588 3.16253,-3.93534 C 211.91159,816.77091 213.43973,815 213.56807,815 c 0.12833,0 2.64052,1.1206 5.58263,2.49023 9.69527,4.51339 19.8493,2.73973 19.8493,-3.46718 0,-2.70391 -3.45408,-4.74414 -12.14803,-7.17552 -9.40824,-2.63113 -13.21594,-4.98742 -15.3596,-9.50486 -2.11998,-4.46752 -1.55372,-11.43296 1.23625,-15.20691 6.31245,-8.53874 22.42583,-9.92703 34.02385,-2.9314 l 3.25247,1.96181 -3.11053,4.33133 -3.11052,4.33132 -4.54088,-2.41441 c -5.24898,-2.79091 -11.73195,-3.1611 -15.0205,-0.85771 -5.10391,3.57492 -1.64926,7.76129 8.57494,10.3912 14.01806,3.60578 18.89939,8.44814 17.99579,17.85209 -0.59206,6.16167 -3.99477,11.09979 -9.48679,13.76753 -5.40445,2.62521 -16.44094,2.95489 -22.82736,0.68191 z m 75.51444,0.87411 c -7.98568,-2.61354 -14.18685,-8.19041 -17.77449,-15.98504 -2.10707,-4.57787 -2.40016,-6.41465 -2.00531,-12.56717 1.04716,-16.31702 12.49837,-26.79355 29.28627,-26.79355 16.7862,0 28.52866,11.40869 28.47804,27.66856 -0.0351,11.26975 -5.69179,20.70281 -15.47804,25.81105 -4.3497,2.27047 -17.85062,3.38991 -22.50647,1.86615 z m 17.00444,-11.62249 c 7.9185,-4.09482 11.15725,-14.8404 7.18173,-23.82772 -4.56926,-10.32957 -18.18364,-12.53224 -27.04493,-4.3756 -8.43663,7.76575 -5.90415,24.4381 4.36523,28.73806 3.3002,1.38185 12.39878,1.06791 15.49797,-0.53474 z m 120.63929,11.03414 c -4.92945,-1.7573 -9.38439,-5.94429 -11.7414,-11.03519 -1.60222,-3.46065 -1.8549,-6.66304 -1.8739,-23.75 L 418,775 h 6 6 v 18.54966 c 0,20.2141 0.61261,23.04154 5.47206,25.25565 1.44212,0.65708 4.66049,1.19469 7.15192,1.19469 3.67336,0 5.08256,-0.55269 7.45294,-2.92308 L 453,814.15385 V 794.57692 775 h 6 6 l -0.022,19.75 c -0.0188,16.93791 -0.28125,20.32076 -1.84302,23.75858 -2.2903,5.04149 -7.94198,10.06619 -12.85769,11.43129 -5.19228,1.44191 -13.99631,1.25077 -18.64007,-0.40468 z m 189.27186,-0.0887 c -5.59116,-1.72235 -13.21659,-8.23113 -16.18893,-13.81828 -3.12657,-5.87705 -3.1496,-19.35712 -0.0429,-25.12821 9.61053,-17.85293 34.92007,-21.42435 48.37605,-6.82634 5.59329,6.068 7.29151,10.43948 7.31362,18.82634 0.0314,11.89881 -5.03502,20.17922 -15.56672,25.44197 -5.04744,2.52224 -7.27433,3.04583 -12.70993,2.98838 -3.62466,-0.0383 -8.65617,-0.70605 -11.18116,-1.48386 z m 18.72386,-11.07662 c 7.60558,-3.60908 11.09753,-17.37922 6.37242,-25.12901 -5.14171,-8.43309 -17.45309,-10.39614 -25.50048,-4.06607 -3.42049,2.69056 -6.45387,9.17722 -6.48296,13.86332 -0.0302,4.86205 3.78538,11.98544 7.87592,14.70382 4.15753,2.76289 12.60567,3.06202 17.7351,0.62794 z m 135.6912,11.19064 C 770.85564,828.16328 764,824.28272 764,823.15058 764,822.34639 768.90033,815 769.43675,815 c 0.20056,0 2.77184,1.1206 5.71395,2.49023 9.43278,4.3912 19.8493,2.80432 19.8493,-3.02388 0,-3.17373 -2.97786,-5.0334 -12.11385,-7.56511 -4.06186,-1.1256 -8.8,-2.92095 -10.52921,-3.98966 -9.54806,-5.90102 -7.63457,-21.23023 3.29765,-26.41791 5.28753,-2.5091 15.28417,-2.31871 22.50431,0.4286 7.9602,3.02892 8.42401,3.89109 4.76781,8.86275 l -3.03472,4.12658 -4.09831,-2.13616 c -2.25407,-1.17489 -6.39299,-2.32645 -9.19759,-2.55903 -4.21195,-0.34929 -5.42413,-0.0639 -6.9662,1.64007 -2.49918,2.76155 -1.49755,6.55668 2.10739,7.98484 1.5195,0.60197 5.01272,1.62617 7.76272,2.276 12.58217,2.9732 17.48951,7.512 17.49626,16.18234 0.009,11.14601 -8.27041,17.7809 -21.99626,17.62787 -3.025,-0.0337 -7.37912,-0.64889 -9.67582,-1.36702 z M 357,802.5 V 775 h 6 6 v 22.5 22.5 h 12.5 12.5 v 5 5 H 375.5 357 Z m 151,5.5 v -22 h -8.5 -8.5 v -5.5 -5.5 h 23 23 v 5.5 5.5 h -8.5 -8.5 v 22 22 h -6 -6 z m 54.5,-5.5 V 775 h 5.7191 5.7191 l 0.2809,27.50064 0.2809,27.50065 -6,-6.5e-4 -6,-6.4e-4 z m 124.5,0 V 775 h 4.37408 c 4.2645,0 4.56073,0.2192 11.82477,8.75 4.09787,4.8125 10.67954,12.71742 14.62592,17.56648 L 725,810.13296 V 792.56648 775 h 6 6 v 27.5 27.5 h -4.91597 c -4.60006,0 -5.12768,-0.27312 -8.21039,-4.25 -1.81193,-2.3375 -6.68724,-8.08462 -10.83403,-12.77137 -4.14678,-4.68675 -8.98702,-10.31175 -10.75608,-12.5 L 699.06706,796.5 699.03353,813.25 699,830 h -6 -6 z m -503.55307,-69.2792 -12.05307,-0.2792 -8.36277,-14.7208 C 158.43156,710.12436 153.6123,701.8125 152.32161,699.75 L 149.97491,696 H 142.48746 135 v 18.5 18.5 l -11.25,-2e-4 -11.25,-1.9e-4 v -52.07039 -52.07039 l 26.5,0.3503 c 30.42371,0.40216 33.69367,1.11358 42.81583,9.31519 15.05596,13.53661 13.01455,40.20412 -3.88167,50.70739 -2.71379,1.68698 -4.93416,3.25161 -4.93416,3.47695 0,0.22534 5.21224,9.42083 11.58276,20.43443 6.37052,11.01359 11.43302,20.09946 11.25,20.19081 -0.18302,0.0914 -5.75664,0.0405 -12.38583,-0.1131 z m -20.34481,-58.50736 c 6.50782,-4.37934 7.43957,-14.8345 1.87731,-21.0653 L 162.16906,650.5 148.58453,650.17252 135,649.84504 V 663.42252 677 h 12.35212 c 11.21076,0 12.66608,-0.21128 15.75,-2.28656 z m 78.01021,57.70601 c -17.68167,-4.75519 -31.04524,-18.23103 -35.58067,-35.87955 -1.74946,-6.80762 -1.99481,-22.81776 -0.45225,-29.51209 1.89146,-8.20849 6.83323,-16.92542 13.2622,-23.3936 C 229.05595,632.85456 241.42743,628 258.18425,628 c 16.38013,0 26.92971,4.09574 37.32486,14.49089 10.48907,10.48907 14.82011,21.7592 14.79879,38.50911 -0.0327,25.72227 -14.4925,45.38509 -37.84945,51.46881 -7.40011,1.92748 -24.09321,1.90119 -31.34612,-0.0494 z m 29.1671,-20.6822 c 18.32604,-7.70269 23.7185,-38.09743 9.60388,-54.13248 -5.69399,-6.46871 -10.71438,-8.83722 -19.88331,-9.38051 -8.87801,-0.52606 -14.02129,0.68327 -20.05917,4.71644 -19.04729,12.72321 -17.41557,48.38969 2.65838,58.10733 8.60036,4.16336 18.80984,4.41757 27.68022,0.68922 z M 325.99866,681.25 326,629 h 23.95078 c 25.36388,0 31.50917,0.71781 39.16896,4.57522 8.81585,4.43958 13.05914,11.81392 13.18359,22.91153 0.0967,8.62364 -2.48701,15.02609 -7.65429,18.96737 l -3.58864,2.73719 4.68306,3.15434 c 3.20742,2.16041 5.59047,4.88741 7.5628,8.65435 2.6581,5.07668 2.84789,6.15422 2.46586,14 -0.65414,13.4343 -6.15855,21.24227 -18.39129,26.08793 -5.51274,2.18372 -7.61784,2.36341 -33.63217,2.8708 L 325.99733,733.5 Z m 52.46704,30.32878 c 5.81951,-2.43155 8.51645,-11.30385 4.9736,-16.36199 C 380.34797,690.80331 377.05428,690 362.04966,690 H 348 v 11.5 11.5 h 13.53212 c 9.43296,0 14.56249,-0.43052 16.93358,-1.42122 z m -0.876,-43.71108 c 1.80846,-1.81042 2.791,-4.06563 3.14688,-7.22299 0.47686,-4.23073 0.24088,-4.86725 -3.00957,-8.1177 L 374.2,649 H 361.1 348 v 11.07748 11.07748 l 13.48013,-0.32748 c 13.02381,-0.31639 13.56914,-0.41659 16.10957,-2.95978 z m 78.52263,64.55175 C 433.26852,726.27598 419,706.69905 419,681.5 c 0,-31.42577 21.82471,-53.5 52.89524,-53.5 16.67921,0 27.05532,3.99433 37.7313,14.52484 10.13379,9.9957 15.3439,23.06016 15.3439,38.47516 0,25.08593 -14.21218,44.35485 -37.90194,51.38756 -6.82074,2.02486 -23.48173,2.04202 -30.95617,0.0319 z m 29.4616,-21.22457 c 12.29594,-6.34333 19.47139,-22.86301 16.42375,-37.81159 -3.50255,-17.17993 -14.89095,-26.16744 -31.90936,-25.18226 -17.01592,0.98504 -27.82485,12.53419 -28.88595,30.86415 -1.14343,19.75199 9.65444,33.66698 27.29763,35.17791 5.20095,0.44539 13.00134,-0.94721 17.07393,-3.04821 z M 585.55917,682.75 c -9.25273,-28.1875 -17.0369,-51.8125 -17.29815,-52.5 -0.36367,-0.95704 2.34366,-1.25 11.55162,-1.25 h 12.02663 l 1.51793,4.75 C 601.26158,658.48485 612,695.72601 612,698.40379 c 0,2.93887 1.73175,1.63667 2.27495,-1.71065 0.29514,-1.81878 5.19142,-17.79378 10.88062,-35.5 L 635.49957,629 h 10.07134 10.07133 l 7.64634,23.75 c 4.20548,13.0625 9.10081,28.79767 10.8785,34.96704 1.7777,6.16937 3.34516,11.10405 3.48326,10.96595 0.1381,-0.13809 2.29054,-7.21076 4.7832,-15.71704 2.49266,-8.50627 7.18755,-24.01595 10.43308,-34.46595 l 5.90096,-19 12.03733,-0.28015 12.03733,-0.28014 -17.40362,52.28014 L 688.035,733.5 l -9.41537,0.28498 -9.41538,0.28498 -2.49177,-7.28498 c -1.37047,-4.00674 -6.59326,-19.39932 -11.60621,-34.20574 -5.01295,-14.80641 -9.27392,-27.08022 -9.46882,-27.27513 -0.19491,-0.1949 -5.68863,15.18194 -12.20827,34.17076 L 621.5753,734 h -9.5965 -9.59649 z m 243.43954,-1.58241 0.001,-52.3324 27.75,0.40193 c 30.92041,0.44785 33.56893,0.92017 41.0455,7.31983 6.09639,5.21828 8.67295,11.34496 8.59729,20.44305 -0.0729,8.76971 -2.39644,14.32181 -7.7969,18.63094 l -3.40891,2.72003 4.49228,2.97556 c 11.09526,7.3492 14.3176,21.9839 7.78186,35.34247 -3.07903,6.29331 -7.95871,10.57385 -15.46112,13.56278 -5.07479,2.02177 -7.72281,2.23281 -34.25129,2.7297 L 828.99742,733.5 Z m 53.3941,30.31625 c 8.07155,-3.8302 8.85848,-14.9213 1.38212,-19.47964 -2.88145,-1.75682 -5.04713,-1.99717 -18.02493,-2.00046 L 851,690 v 11.5 11.5 h 14.09887 c 10.52755,0 14.9082,-0.38405 17.29394,-1.51616 z M 881.6,667.6 c 2.7873,-2.7873 3.4,-4.15686 3.4,-7.6 0,-3.44314 -0.6127,-4.8127 -3.4,-7.6 L 878.2,649 H 864.6 851 v 11 11 h 13.6 13.6 z M 737,681 v -52 h 37 37 v 10.5 10.5 h -26 -26 v 10.5 10.5 h 22.5 22.5 v 9.5 9.5 H 781.5 759 v 11 11 h 26 26 V 722.5 733 H 774 737 Z M 493.71578,588.7017 C 492.90381,586.58576 483.56067,574.59816 469.00745,557 c -7.50479,-9.075 -20.34373,-24.825 -28.53098,-35 -15.38995,-19.12642 -31.65309,-38.15672 -32.1682,-37.6416 -0.38167,0.38167 4.73776,28.07369 8.61241,46.5863 1.66279,7.94459 2.86678,14.60117 2.67554,14.79241 -0.29566,0.29566 -27.27718,-15.79855 -40.17912,-23.96645 -5.74581,-3.63752 -9.16284,-8.0667 -10.86801,-14.08716 C 361.43074,482.5507 353,452.23131 353,451.76447 c 0,-0.31647 6.93898,-3.52034 15.41995,-7.11971 l 15.41995,-6.54431 38.62915,-0.15917 38.62915,-0.15916 6.2009,4.81848 c 3.41049,2.65017 14.23809,11.36169 24.06132,19.35894 9.82323,7.99726 18.24081,14.54046 18.70573,14.54046 0.46492,0 11.32773,-8.36645 24.13958,-18.59211 12.81185,-10.22567 24.27719,-19.11317 25.47853,-19.75 C 561.22236,437.34253 572.52917,437 597.90547,437 h 36.03695 l 7.77879,2.8443 c 16.06149,5.87285 27.34612,11.36106 26.84737,13.05705 -0.25856,0.87926 -2.3329,8.79865 -4.60962,17.59865 -5.52283,21.34681 -10.76554,39.2333 -12.43092,42.41043 -2.38826,4.55618 -7.67234,8.72178 -22.96962,18.10763 -8.21786,5.04219 -17.55536,10.9426 -20.75,13.11204 -3.19463,2.16943 -5.80842,3.50447 -5.80842,2.96676 0,-0.81771 4.77802,-26.30411 10.42294,-55.59686 0.74192,-3.85 1.28166,-7.08111 1.19942,-7.18025 C 613.21575,483.82959 588.9342,512.3498 570.4742,535 c -11.43043,14.025 -24.22321,29.55 -28.4284,34.5 -4.20519,4.95 -9.58986,11.5875 -11.96594,14.75 l -4.32015,5.75 h -15.77287 c -12.00872,0 -15.89176,-0.30983 -16.27106,-1.2983 z M 405.43097,410.18228 c -8.28675,-2.86482 -14.42147,-8.88941 -16.436,-16.14094 -0.56937,-2.04951 -0.98617,-20.42976 -0.98939,-43.63138 -0.006,-45.63483 0.36066,-48.53309 8.15626,-64.40996 5.68046,-11.56906 18.61722,-24.65891 30.36553,-30.72486 14.80415,-7.64376 19.47834,-8.50921 48.72263,-9.02125 L 501,245.80304 V 226.90152 C 501,211.65759 500.73757,208 499.6438,208 496.58367,208 489.10885,200.92183 486.4673,195.5227 477.62479,177.44924 490.74382,156 510.64063,156 c 15.24346,0 28.61136,14.5804 27.06902,29.52423 -0.86759,8.40621 -5.89742,16.6754 -12.78935,21.02608 L 521,209.02509 V 227.51254 246 l 21.25,0.0349 c 28.75678,0.0472 40.78362,2.45086 55.47924,11.08793 9.35994,5.50112 22.11139,18.95936 27.08898,28.59046 C 632.67633,300.9179 633,303.49917 633,350.96362 v 41.64369 l -2.63509,5.28793 c -1.5945,3.19976 -4.22593,6.44033 -6.66364,8.2062 -8.42082,6.10001 -4.5787,5.90167 -113.63277,5.86591 -92.23369,-0.0302 -99.94191,-0.16174 -104.63753,-1.78507 z m 62.68656,-54.97502 c 9.62279,-5.027 14.59358,-14.26358 13.6046,-25.27965 -1.6265,-18.11736 -19.87698,-28.46835 -36.15357,-20.50496 -9.33834,4.56883 -14.57958,13.21093 -14.55879,24.00549 0.0179,9.27184 6.74651,19.37995 15.41251,23.15343 1.69275,0.73708 6.06383,1.35776 9.71353,1.37929 5.36948,0.0317 7.65598,-0.4938 11.98172,-2.7536 z m 110.46095,-0.74317 c 5.80798,-3.58274 10.99784,-11.45598 12.01275,-18.22387 2.27784,-15.18973 -9.53746,-29.19559 -24.78293,-29.37769 -14.61003,-0.17451 -25.7754,11.04325 -25.79853,25.91959 -0.0117,7.49177 1.5459,11.61342 6.43275,17.02258 5.75511,6.37022 10.62937,8.3553 19.63596,7.99688 6.387,-0.25417 8.35224,-0.77888 12.5,-3.33749 z m -207.34289,23.5569 c -5.44257,-1.29092 -10.82259,-5.5364 -13.17564,-10.39714 -2.04728,-4.22913 -2.16308,-5.67684 -1.87115,-23.39301 0.30805,-18.69368 0.33905,-18.92694 3.06232,-23.03811 C 362.30216,316.58672 368.30389,313 372.96016,313 H 376 v 33 c 0,18.15 -0.3375,32.95394 -0.75,32.89764 -0.4125,-0.0563 -2.21898,-0.45079 -4.01441,-0.87665 z M 646,345.63167 V 313 h 3.03984 c 4.0759,0 10.34661,3.31567 12.72299,6.72736 3.58665,5.14922 4.23717,9.17314 4.23717,26.20997 0,15.28361 -0.18327,16.9976 -2.25,21.04281 -2.92118,5.71762 -8.39791,10.02882 -13.63194,10.73085 L 646,378.26334 Z"
         id="path4" />
      <path
         style="fill-opacity:1;fill:#1e7bb5"
         d="m 219.76161,829.46376 c -5.91731,-1.89507 -11.77022,-5.29294 -11.73471,-6.81254 0.0148,-0.63317 1.26526,-2.64381 2.77882,-4.46809 l 2.75192,-3.31688 5.21391,2.70508 C 228.34266,822.537 239,820.82947 239,814.33031 c 0,-3.12077 -4.35296,-5.71124 -13.26837,-7.89608 -14.07964,-3.45039 -19.30728,-13.42283 -12.70806,-24.24237 4.65885,-7.63827 19.27647,-9.65028 30.73342,-4.23023 l 6.25699,2.96006 -3.07821,4.36709 -3.07821,4.36709 -4.59826,-2.32793 c -8.91898,-4.51537 -18.45504,-2.22829 -16.87971,4.04834 0.65225,2.59877 3.56145,3.98489 14.93656,7.11673 3.61227,0.99454 7.1757,2.84725 9.40407,4.8894 3.11324,2.85307 3.63921,4.00443 3.97571,8.70283 0.50189,7.00766 -2.43381,12.4037 -8.59821,15.80418 -5.51017,3.03958 -15.55105,3.7473 -22.33611,1.57434 z m 71.81029,-0.48149 C 285.86591,826.75435 279.76085,821.2282 276.67726,815.5 274.95552,812.30161 274.524,809.79658 274.524,803 c 0,-9.7636 1.70502,-13.99309 8.14127,-20.19529 5.68814,-5.4813 11.50805,-7.75667 19.90659,-7.78275 12.26565,-0.0381 20.63822,4.37593 26.17913,13.80166 2.45083,4.16914 2.74823,5.6526 2.74184,13.67638 -0.006,7.34781 -0.41123,9.75784 -2.20819,13.12821 -2.92937,5.4943 -10.31073,11.85194 -16.01825,13.79669 -6.22893,2.12241 -15.61557,1.93089 -21.69449,-0.44263 z M 307.5,819.90125 c 10.58304,-2.8775 15.74076,-15.62851 10.48714,-25.92646 -4.80493,-9.41844 -17.61776,-11.75006 -25.67829,-4.67281 -10.85011,9.52652 -7.23498,27.55393 6.17023,30.76881 4.3263,1.03755 4.6004,1.0324 9.02092,-0.16954 z m 124.51027,9.78325 c -4.78158,-1.52273 -11.28291,-8.28862 -12.78043,-13.30052 C 418.44798,813.76726 418,805.48036 418,793.63398 V 775 h 6 6 v 19.57692 19.57693 l 2.92308,2.92307 C 435.42595,819.5798 436.61586,820 441.20057,820 452.32369,820 454,816.40261 454,792.53212 V 775 h 5.5 5.5 l -0.022,19.75 c -0.0242,21.78197 -0.70501,24.91638 -6.61611,30.46115 -5.60313,5.25589 -17.53433,7.28128 -26.35166,4.47335 z M 623,830.06487 c -5.43729,-1.65994 -10.95715,-5.19688 -14.41508,-9.2367 -11.25259,-13.14612 -7.37378,-33.42117 8.13224,-42.5083 5.994,-3.51272 17.56475,-4.38341 25.07999,-1.88725 11.30376,3.75451 18.51197,14.19613 18.43578,26.70557 -0.0727,11.94377 -6.80859,21.68861 -17.84619,25.8183 -5.55855,2.07972 -14.52573,2.59239 -19.38674,1.10838 z m 18.78954,-12.75706 c 6.07511,-4.53573 8.50772,-15.96472 4.88792,-22.96464 -4.95149,-9.57513 -17.42191,-12.05163 -26.14288,-5.19171 C 616.97952,791.94787 614,798.1475 614,802.74827 c 0,4.7014 3.57528,11.96125 7.18523,14.59008 5.26119,3.8313 15.45203,3.81619 20.60431,-0.0305 z M 776.5,829.59785 C 771.59994,828.0441 764,824.20496 764,823.28343 764,822.56742 769.07377,815 769.55384,815 c 0.15501,0 2.64785,1.18838 5.53964,2.64084 9.62899,4.83637 19.90652,3.12718 19.90652,-3.31053 0,-3.12077 -4.35296,-5.71124 -13.26837,-7.89608 -14.02246,-3.43638 -19.30548,-13.42645 -12.76795,-24.14389 5.20297,-8.5296 21.88946,-10.0201 33.77215,-3.01665 l 3.23583,1.90714 -2.95206,4.29068 -2.95205,4.29067 -4.70326,-2.38109 c -5.5726,-2.82121 -13.381,-3.22153 -15.79286,-0.80966 -0.86429,0.86428 -1.57143,2.65273 -1.57143,3.97432 0,2.90584 2.95561,4.61347 12.04434,6.95874 12.46034,3.21528 16.95566,7.44384 16.95566,15.94946 0,5.66122 -1.94365,9.65999 -6.24895,12.85625 -6.34497,4.71053 -15.74491,5.98485 -24.25105,3.28765 z M 357.5,802.5 V 775 h 5.75 5.75 v 22.5 22.5 h 12.5 12.5 v 5 5 H 375.75 357.5 Z M 508,808 v -22 h -8.5 -8.5 v -5.5 -5.5 h 23 23 v 5.5 5.5 h -9.03719 -9.03718 l 0.28718,22.0009 0.28719,22.0009 -5.75,-9e-4 L 508,830 Z m 55,-5.5 V 775 h 5.5 5.5 v 27.5 27.5 h -5.5 -5.5 z m 124,0 V 775 h 4.38165 4.38165 l 11.99217,14.36982 c 6.59569,7.9034 13.03357,15.7784 14.3064,17.5 1.27284,1.7216 2.56712,3.13074 2.87619,3.13142 0.30907,6.8e-4 0.42938,-7.87432 0.26735,-17.5 L 724.91082,775 h 6.12803 6.12803 l -0.30896,27.5 -0.30896,27.5 -4.52448,-1.2e-4 c -4.50092,-1.2e-4 -4.56874,-0.0524 -13.02448,-10.03812 -4.675,-5.5209 -10.975,-13.14074 -14,-16.93297 -3.025,-3.79223 -5.725,-6.92566 -6,-6.96316 -0.275,-0.0375 -0.36698,7.58238 -0.20441,16.93309 L 699.09119,830 H 693.04559 687 Z M 242.10893,732.41858 c -23.99314,-6.45237 -38.04476,-25.09191 -38.09415,-50.53209 -0.0206,-10.63887 1.40744,-17.21351 5.59201,-25.74449 C 218.32655,638.36527 236.15076,628 258,628 c 25.4143,0 44.3773,14.15468 50.51091,37.70319 1.95592,7.5093 1.90822,22.88249 -0.0951,30.65247 -4.6724,18.12204 -18.19362,31.36845 -36.87591,36.12643 -7.43174,1.89271 -22.27589,1.86067 -29.43097,-0.0635 z m 28.32359,-20.28571 c 5.7524,-2.54456 11.28876,-8.31034 14.44766,-15.04639 C 287.18557,692.17049 287.5,690.23979 287.5,681 c 0,-9.20221 -0.31926,-11.18055 -2.58301,-16.00609 -5.14792,-10.9736 -14.46897,-16.99525 -26.61547,-17.19432 -19.40068,-0.31796 -31.51999,12.37936 -31.68907,33.20041 -0.14221,17.51175 8.71622,29.83622 23.7313,33.01666 5.76997,1.22218 15.03032,0.35381 20.08877,-1.88379 z m 186.79474,20.42016 c -18.10921,-4.38545 -32.00945,-18.5593 -36.8219,-37.54669 -2.18734,-8.6301 -1.46864,-24.05578 1.51669,-32.55328 2.42946,-6.91525 8.17629,-16.06828 9.86687,-15.71506 0.62651,0.13091 0.90467,-0.37291 0.61815,-1.11959 -0.71866,-1.87278 8.6889,-9.26123 16.09293,-12.63897 10.7116,-4.88666 24.72566,-6.36736 36.70078,-3.87773 18.86551,3.92214 34.11632,19.61508 38.2883,39.39829 6.41794,30.4334 -10.69386,58.48378 -39.2883,64.40303 -6.92441,1.43339 -20.32733,1.25948 -26.97352,-0.35 z m 22.17064,-19.06845 c 10.87854,-2.8335 18.10332,-9.99514 21.68157,-21.49211 2.30778,-7.4149 2.43174,-13.60959 0.42641,-21.30858 -4.20631,-16.14911 -17.28786,-24.87145 -33.91713,-22.61481 -15.94318,2.16353 -25.50022,13.40212 -26.38654,31.0292 -0.90717,18.04156 6.92494,30.55143 21.601,34.50233 6.32266,1.7021 9.70521,1.67845 16.59469,-0.11603 z M 602.04194,732 c -0.42062,-0.825 -7.99628,-23.55 -16.8348,-50.5 -8.83853,-26.95 -16.37404,-49.7875 -16.74558,-50.75 -0.6204,-1.60717 0.3071,-1.75 11.36406,-1.75 10.59995,0 12.10228,0.20926 12.56375,1.75 0.28828,0.9625 4.10194,13.675 8.4748,28.25 4.37286,14.575 8.77982,29.98493 9.79324,34.24429 1.01343,4.25936 2.129,7.74686 2.47905,7.75 0.35005,0.003 0.94749,-1.90679 1.32765,-4.24429 0.38016,-2.3375 5.28378,-18.425 10.89693,-35.75 l 10.20575,-31.5 9.9666,-0.25757 9.96661,-0.25758 8.24892,25.75758 c 4.53691,14.16666 9.46126,30.13323 10.94299,35.48125 1.48173,5.34803 2.84912,9.56862 3.03866,9.37909 0.18953,-0.18954 1.41714,-4.34019 2.72802,-9.22369 2.0685,-7.70587 12.65822,-42.63041 17.17091,-56.62908 l 1.53123,-4.75 h 11.83864 11.83863 l -17.42014,52.25 -17.42014,52.25 h -9.51044 -9.51043 l -11.41026,-34.3385 c -6.27564,-18.88618 -11.58072,-34.50896 -11.78905,-34.7173 -0.20834,-0.20833 -5.75601,15.20833 -12.32817,34.25924 L 621.5,733.34148 l -9.34666,0.0793 c -7.35887,0.0624 -9.5093,-0.23975 -10.1114,-1.42074 z M 113,681 v -52 h 22.31634 c 12.27399,0 24.98649,0.49252 28.25,1.09448 12.16947,2.2447 21.26594,8.87917 25.75341,18.78312 1.58336,3.49451 2.10488,6.70079 2.13733,13.1402 0.0386,7.65352 -0.29039,9.19519 -3.24198,15.19362 -3.15354,6.40883 -7.13938,10.5758 -13.29309,13.89715 l -2.57799,1.39143 11.74439,20.25 11.7444,20.25 -12.1664,-0.0363 -12.16641,-0.0363 -10.5,-18.45549 -10.5,-18.4555 -8.2927,-0.008 -8.2927,-0.008 0.2927,18.50115 0.2927,18.50115 -10.75,-0.001 L 113,733 Z m 51.43933,-6.94011 c 5.75733,-5.41515 5.79524,-15.02532 0.0818,-20.73876 L 161.2,650 H 147.6 134 v 13.57558 13.57559 l 13.92251,-0.32559 c 13.16083,-0.30777 14.06445,-0.45908 16.51682,-2.76569 z M 326,680.91416 v -52.08583 l 26.25,0.41364 c 28.92123,0.45572 32.78404,1.10248 40.65997,6.80777 11.67789,8.45942 12.41141,30.16137 1.33732,39.56566 l -3.66856,3.11539 3.03578,1.56987 c 4.43468,2.29326 10.09329,8.98482 11.31337,13.37856 3.96231,14.26913 -2.06112,28.96097 -14.20437,34.6461 C 382.16489,732.33223 376.41199,733 350.45078,733 H 326 Z m 52.90116,30.63695 c 6.57479,-3.39995 8.22169,-12.14368 3.32048,-17.62908 -3.46316,-3.87595 -7.90927,-4.82017 -22.97164,-4.87848 L 348,689 v 12 12 h 14.04966 c 10.31245,0 14.79495,-0.3854 16.8515,-1.44889 z m -6.71544,-40.58594 c 7.3979,-2.05471 10.9011,-10.02902 7.38928,-16.82014 -2.22197,-4.29681 -5.87395,-5.41632 -19.325,-5.92406 L 348,647.75856 V 659.87928 672 l 10.25,-0.006 c 5.6375,-0.003 11.90858,-0.46623 13.93572,-1.02925 z M 737.5,680.99978 v -51.99999 l 36.18566,1e-4 36.18566,1.1e-4 0.31434,10.50211 0.31434,10.50211 -25.75,-0.002 L 759,650 v 10.5 10.5 h 22.5 22.5 v 9.5 9.5 H 781.5 759 l -7.2e-4,11.25 -7.3e-4,11.25 25.43574,-0.28267 25.43574,-0.28266 0.31499,10.53477 0.31498,10.53478 -36.5,-0.002 -36.5,-0.002 z m 32.26166,-8.68686 c -0.95609,-0.25029 -2.75609,-0.25937 -4,-0.0202 -1.24391,0.23919 -0.46166,0.44398 1.73834,0.45508 2.2,0.0111 3.21775,-0.18461 2.26166,-0.4349 z m 13.96751,0.0829 c -0.33229,-0.33229 -1.1948,-0.36781 -1.91667,-0.0789 -0.79773,0.31922 -0.56078,0.55618 0.60417,0.60416 1.05416,0.0434 1.64479,-0.19293 1.3125,-0.52522 z M 829,681 v -52 l 23.25,0.008 c 12.7875,0.004 26.11286,0.4721 29.6119,1.03986 16.13593,2.61828 24.06993,11.41376 24.11614,26.73471 0.0272,9.00611 -1.74606,13.62403 -7.01781,18.27614 l -4.03221,3.55827 4.85057,3.14306 c 6.8599,4.44506 10.46121,11.29679 10.57654,20.12254 0.21061,16.11786 -8.45087,26.44528 -25.15435,29.99251 C 882.06686,732.54017 869.50217,733 854.45078,733 H 829 Z m 54.03273,30.48307 c 8.22914,-4.25545 7.65521,-17.24279 -0.91405,-20.68404 -1.44028,-0.57839 -9.03118,-1.14589 -16.86868,-1.26113 L 851,689.32838 V 701.16419 713 h 14.54966 c 11.04933,0 15.25537,-0.36494 17.48307,-1.51693 z m -6.84701,-40.5179 c 7.54527,-2.09564 11.0387,-10.39095 7.14901,-16.97567 -2.53128,-4.28511 -5.70303,-5.21768 -19.58473,-5.75836 L 851,647.73454 V 659.86727 672 l 10.75,-0.006 c 5.9125,-0.003 12.40858,-0.46623 14.43572,-1.02925 z M 489.44494,582.25 c -3.18856,-4.2625 -9.03608,-11.60952 -12.99449,-16.32671 -7.6371,-9.10104 -28.54654,-34.7967 -41.84489,-51.42329 -12.10325,-15.13238 -25.99482,-30.83221 -26.34679,-29.77632 -0.34881,1.04645 5.30951,31.51019 9.14744,49.24878 1.36521,6.30986 2.3524,11.60226 2.19376,11.7609 -0.74023,0.74023 -41.42255,-24.70485 -45.14029,-28.23336 -3.10953,-2.95126 -4.61536,-5.44202 -5.74337,-9.5 -0.84086,-3.025 -4.52867,-16.3 -8.19513,-29.5 -3.66647,-13.2 -6.86165,-24.7014 -7.1004,-25.55868 -0.32838,-1.17907 3.15977,-3.12741 14.32256,-8 L 382.5,438.5 l 39.5,-0.25529 39.5,-0.25529 14.56529,11.75529 c 8.01092,6.46541 18.90891,15.28025 24.21778,19.58853 l 9.65248,7.83325 6.28223,-4.79822 C 519.673,469.72926 527.225,463.69155 533,458.95114 c 5.775,-4.74041 14.48329,-11.64395 19.35175,-15.34119 l 8.85174,-6.72226 37.68771,0.52623 c 41.85988,0.58448 38.07149,0.0172 58.0837,8.69809 9.22358,4.00101 11.9386,5.59873 11.56885,6.80796 -0.26573,0.86901 -2.98421,11.03003 -6.04108,22.58003 -8.02845,30.33446 -10.25511,36.85079 -14.14498,41.39522 -1.8803,2.19671 -8.96665,7.33606 -16.10751,11.6819 -7.0126,4.26779 -16.71863,10.36198 -21.56896,13.54266 -8.53199,5.59496 -8.80123,5.69518 -8.27901,3.08163 3.89256,-19.48105 11.44965,-60.64942 11.18508,-60.93241 -0.4573,-0.48915 -23.30086,26.2576 -41.27603,48.32872 -10.34619,12.70374 -23.50476,28.67874 -29.24126,35.5 -5.7365,6.82125 -11.96621,14.53978 -13.8438,17.15228 L 525.81239,590 H 510.52736 495.24232 Z M 402.2376,408.88857 c -5.37674,-2.66144 -11.53042,-9.58486 -13.06158,-14.69541 C 388.36259,391.47818 388,378.34328 388,351.59182 c 0,-41.52111 0.5573,-47.62004 5.4521,-59.66623 8.52349,-20.97643 27.30043,-37.16319 49.92955,-43.04203 6.00273,-1.55946 11.07565,-1.85197 32.36835,-1.86642 L 501,247 v -19.37868 -19.37868 l -3.02614,-1.25347 c -4.20968,-1.74371 -11.35904,-9.99373 -12.78506,-14.75335 -3.90744,-13.04189 0.88211,-25.80912 12.08169,-32.20547 16.83833,-9.61677 37.30763,0.63662 40.23445,20.15406 1.38978,9.26769 -4.83341,21.98486 -12.87853,26.31745 L 521,208.45481 V 227.7274 247 h 24.34004 c 21.06404,0 25.39219,0.2691 32.15737,1.99934 21.1175,5.40094 39.17802,20.11564 48.48232,39.50066 C 632.6357,302.36736 633,305.65392 633,351.83321 v 40.93841 l -2.83104,5.36419 c -1.79926,3.40921 -3.43536,5.31423 -4.48923,5.22709 -0.91201,-0.0754 -1.44866,0.20196 -1.19255,0.61636 0.68436,1.10732 -2.53376,3.72443 -6.74166,5.4826 -3.23262,1.35068 -16.32997,1.53804 -107.4634,1.53735 -103.56899,-7.9e-4 -103.79087,-0.005 -108.04452,-2.11064 z m 61.37458,-51.36604 c 19.28038,-5.72566 24.71654,-31.093 9.58608,-44.73258 -15.98357,-14.40862 -42.09055,-2.47319 -42.1763,19.28191 -0.0465,11.79118 6.49913,21.34447 17.1432,25.02044 6.53333,2.25631 9.06088,2.32671 15.44702,0.43023 z m 113.13515,-1.66188 c 8.31615,-3.98737 14.30266,-14.01017 14.20878,-23.78879 -0.16269,-16.94495 -16.37435,-29.28998 -32.36095,-24.64255 -13.07854,3.80204 -21.28316,17.12267 -18.5766,30.16009 3.49873,16.8533 21.25919,25.6885 36.72877,18.27125 z M 366.5,376.1293 c -9.02559,-5.60557 -10.5,-9.94467 -10.5,-30.90084 0,-16.07684 0.11588,-17.0683 2.57053,-21.99414 2.91095,-5.84152 7.37839,-9.14953 13.45757,-9.96491 L 376,312.73666 V 345.36833 378 l -3.25,-0.004 c -1.7875,-0.002 -4.6,-0.84219 -6.25,-1.86696 z M 646,345.5 V 313 h 2.68428 c 5.00806,0 11.14696,3.85693 14.07985,8.84605 2.72408,4.6339 2.73587,4.73651 2.73587,23.81781 v 19.16386 l -3.01338,4.33614 C 659.35642,373.66812 652.39566,378 648.28811,378 H 646 Z"
         id="path3" />
      <path
         style="fill-opacity:1;fill:#1e2d3d"
         d="M 221.61096,829.94543 C 217.44944,828.90538 208,824.10804 208,823.03535 c 0,-1.05912 5.0224,-7.54057 5.79111,-7.47347 0.38989,0.034 2.95889,1.12824 5.70889,2.43159 9.37006,4.44088 19.5,2.62608 19.5,-3.49347 0,-3.35304 -2.9233,-5.30247 -11.83783,-7.89418 -12.90648,-3.75229 -16.54679,-7.17376 -16.54679,-15.55213 0,-6.22364 2.78225,-10.80057 8.39759,-13.81441 3.93074,-2.10969 5.47884,-2.35721 12.48703,-1.99643 7.69741,0.39626 15.26946,2.95708 16.99387,5.74723 0.34626,0.56026 -0.60908,2.74182 -2.12297,4.84792 l -2.75253,3.82927 -4.05918,-2.32159 C 231.7632,782.88688 222,784.75544 222,790.7063 c 0,2.96365 1.491,3.83718 11.22932,6.57892 10.05822,2.8318 13.09965,4.56633 15.81468,9.01911 4.1502,6.80653 1.01434,16.81906 -6.67985,21.32815 -5.01461,2.93876 -14.16748,3.95885 -20.75319,2.31295 z M 223,827.56795 c -3.025,-0.69544 -6.4,-1.62942 -7.5,-2.07552 -1.1,-0.4461 -1.69598,-0.47287 -1.32441,-0.0595 1.20657,1.34229 8.24622,3.48032 11.32441,3.43937 2.10391,-0.028 1.35716,-0.4176 -2.5,-1.30435 z m 12.25,0.72632 c -1.2375,-0.23836 -3.2625,-0.23836 -4.5,0 -1.2375,0.23835 -0.225,0.43337 2.25,0.43337 2.475,0 3.4875,-0.19502 2.25,-0.43337 z m 11.79977,-6.60809 c 1.06852,-1.7524 1.92468,-4.08618 1.9026,-5.18618 -0.0231,-1.15145 -0.63176,-0.33972 -1.43454,1.91322 -0.7669,2.15226 -2.65965,4.98855 -4.2061,6.30286 -2.33708,1.98625 -2.42287,2.20114 -0.50822,1.27296 1.26693,-0.61418 3.17775,-2.55046 4.24626,-4.30286 z m -35.2445,1.96219 c -1.56529,-1.18965 -1.50492,-1.49272 0.79047,-3.9682 1.36686,-1.47409 2.10161,-2.68017 1.63279,-2.68017 -0.46883,0 -1.83487,1.32885 -3.03566,2.953 -2.04089,2.76045 -2.06945,3.01929 -0.43806,3.96959 2.44959,1.42691 3.0742,1.26386 1.05046,-0.27422 z m 20.45848,-1.3523 c -1.22994,-0.23736 -3.47994,-0.24351 -5,-0.0136 -1.52006,0.22985 -0.51375,0.42406 2.23625,0.43157 2.75,0.008 3.99369,-0.18056 2.76375,-0.41792 z M 223,821.28385 c -0.825,-0.30704 -2.7375,-1.18307 -4.25,-1.94674 -1.5125,-0.76366 -2.75,-1.16629 -2.75,-0.89473 0,0.82713 5.40068,3.48012 7,3.43864 1.33333,-0.0346 1.33333,-0.10094 0,-0.59717 z m 17.92105,-5.18884 c -0.067,-1.35378 -0.16236,-1.36815 -0.63049,-0.095 -0.30334,0.825 -1.28032,2.4 -2.17105,3.5 -1.60572,1.98297 -1.60035,1.98378 0.63049,0.095 1.2375,-1.04774 2.21447,-2.62274 2.17105,-3.5 z M 242,813.05902 c 0,-0.51754 -0.49804,-1.24879 -1.10676,-1.625 -0.77264,-0.47752 -0.70097,-0.93482 0.23739,-1.51475 0.96405,-0.59582 0.76457,-0.78708 -0.7054,-0.67635 -1.76786,0.13317 -1.90357,0.46963 -0.98739,2.44793 1.07114,2.31295 2.56216,3.10913 2.56216,1.36817 z m 6.97442,-3.18951 c -1.51091,-5.47205 -4.91569,-7.85952 -15.64035,-10.9672 -5.36014,-1.5532 -9.9212,-2.64851 -10.13568,-2.43403 -0.21449,0.21449 2.91563,1.34617 6.95582,2.51486 15.22067,4.40281 16.23708,5.04256 17.91573,11.27661 0.58383,2.16817 1.24474,3.75891 1.46868,3.53496 0.22394,-0.22394 -0.03,-1.99028 -0.5642,-3.9252 z M 233,806 c -0.825,-0.53316 -2.175,-0.94464 -3,-0.9144 -0.98906,0.0362 -0.81874,0.34772 0.5,0.9144 2.74909,1.18132 4.32797,1.18132 2.5,0 z m -5.27083,-1.60417 c -0.3323,-0.33229 -1.1948,-0.36781 -1.91667,-0.0789 -0.79773,0.31922 -0.56078,0.55618 0.60417,0.60416 1.05416,0.0434 1.64479,-0.19293 1.3125,-0.52522 z M 222.5,803 c -2.74909,-1.18132 -4.32797,-1.18132 -2.5,0 0.825,0.53316 2.175,0.94464 3,0.9144 0.98906,-0.0362 0.81874,-0.34772 -0.5,-0.9144 z m -6.91111,-4.07673 c -4.65488,-5.53201 -2.93124,-16.04539 3.17368,-19.35788 1.50559,-0.81692 2.27506,-1.50333 1.70994,-1.52535 -0.56513,-0.022 -2.0302,0.66228 -3.25572,1.52066 -5.68927,3.98493 -7.06125,14.09383 -2.6279,19.36257 1.4239,1.6922 2.8139,3.07673 3.0889,3.07673 0.275,0 -0.665,-1.38453 -2.0889,-3.07673 z m 5.45695,-6.83762 c -1.29903,-2.42726 -0.184,-5.17505 3.00696,-7.41008 1.88816,-1.32252 1.90813,-1.47658 0.27275,-2.10414 -0.97052,-0.37242 -1.45335,-0.3659 -1.07295,0.0145 0.3804,0.3804 -0.42082,2.01371 -1.78048,3.62958 -2.81435,3.34466 -2.94637,4.05223 -1.25997,6.75258 1.58737,2.54179 2.27612,1.81276 0.83369,-0.88244 z M 245.03297,785.5 c 1.35568,-1.84819 1.33469,-1.89624 -0.27645,-0.63297 -1.48538,1.16466 -2.2504,1.12649 -5.16766,-0.25784 -1.8833,-0.89368 -5.59873,-1.84696 -8.25652,-2.1184 l -4.83234,-0.49352 5.5,1.30106 c 3.025,0.71558 6.85,2.02657 8.5,2.91331 1.65,0.88673 3.01484,1.53937 3.03297,1.4503 0.0181,-0.0891 0.69313,-1.06194 1.5,-2.16194 z m -1.56929,-6.16516 c -6.4254,-2.95531 -12.57979,-3.84142 -17.79275,-2.56183 -4.06114,0.99686 -4.02388,1.01021 1.41563,0.50693 6.01761,-0.55677 15.88654,1.69369 18.14514,4.13771 0.69756,0.75484 1.70196,1.10868 2.23198,0.78631 0.53003,-0.32236 -1.26997,-1.61347 -4,-2.86912 z m 49.15154,50.08577 c -6.98863,-2.2315 -14.92801,-10.36743 -17.03257,-17.45424 -3.35515,-11.29803 -1.06934,-20.85769 6.82902,-28.56019 C 288.6553,777.31739 294.61177,775 304.01842,775 c 11.99353,0 22.86714,7.34622 26.45368,17.87213 4.6306,13.59009 -1.26158,28.42207 -13.83425,34.824 -6.46,3.2894 -16.79751,4.03148 -24.02263,1.72448 z M 302.5,829 c -0.33992,-0.55 -2.18093,-1 -4.09114,-1 -1.9102,0 -5.03364,-0.65204 -6.94098,-1.44897 C 289.56055,825.75409 288,825.28826 288,825.51584 c 0,1.0322 4.80906,2.81241 9.42911,3.49045 2.78899,0.40931 5.20995,0.80034 5.37991,0.86895 0.16996,0.0686 0.0309,-0.32524 -0.30902,-0.87524 z m 2.95729,0.0691 c 0.31644,-0.512 0.11799,-1.21356 -0.44098,-1.55902 -0.55897,-0.34546 -1.01631,0.0734 -1.01631,0.9309 0,1.75653 0.60006,2.01516 1.45729,0.62812 z M 312.5,828 c 1.26064,-0.54172 1.44548,-0.85943 0.5,-0.85943 -0.825,0 -2.4,0.38674 -3.5,0.85943 -1.26064,0.54172 -1.44548,0.85943 -0.5,0.85943 0.825,0 2.4,-0.38674 3.5,-0.85943 z m 11,-7.16394 3,-3.33606 -3.05231,2.74769 c -2.44602,2.20191 -3.3044,2.49986 -4.32143,1.5 -0.69801,-0.68623 -1.18368,-0.79769 -1.07927,-0.24769 0.53543,2.82025 -0.0402,3.75051 -1.54699,2.5 -0.90562,-0.7516 -1.5,-0.83314 -1.5,-0.20578 0,1.44998 2.20633,2.088 4,1.15671 0.825,-0.42835 2.85,-2.28004 4.5,-4.11487 z m -36.5,3.78638 c 0,-0.20765 -0.7875,-0.99515 -1.75,-1.75 -1.58606,-1.24387 -1.62143,-1.2085 -0.37756,0.37756 1.30637,1.66575 2.12756,2.19548 2.12756,1.37244 z m 24.26489,-3.50024 c 0.98633,-0.99664 0.66808,-1.03392 -1.57999,-0.18511 -3.94697,1.49028 -10.12802,1.32243 -14.21702,-0.38606 -4.38951,-1.83406 -4.57837,-0.95593 -0.21788,1.01306 3.82271,1.72615 14.15132,1.44116 16.01489,-0.44189 z m -30.77478,-3.95778 c -1.39604,-2.10957 -2.96505,-5.82207 -3.48668,-8.25 l -0.94842,-4.41442 0.38693,4.32151 C 276.77487,812.5399 281.00296,821 282.52838,821 c 0.275,0 -0.64222,-1.72601 -2.03827,-3.83558 z m 32.38969,0.65113 3.6202,-2.18713 -1.94393,2.22882 c -1.23995,1.42167 -1.42102,2.00739 -0.5,1.61737 1.78939,-0.75774 5.71802,-5.63561 6.54314,-8.12409 0.33747,-1.01779 -0.35855,-0.33727 -1.5467,1.51226 -2.87867,4.48104 -3.7238,3.3893 -0.97838,-1.26386 2.7942,-4.73581 2.43116,-15.06967 -0.67938,-19.33815 C 314.75746,788.64171 307.51024,785 302.94539,785 c -5.31136,0 -12.03405,3.92721 -14.67894,8.57502 -3.92138,6.89097 -2.58098,18.1154 2.73815,22.92915 5.2855,4.7833 15.14958,5.37464 21.8752,1.31138 z m -24.9841,-3.67644 c -1.66194,-2.67349 -3.39042,-7.06099 -3.84108,-9.75 -0.6668,-3.97868 -0.84128,-4.27793 -0.937,-1.60699 -0.1321,3.68618 1.79483,8.88181 4.92368,13.27589 3.27944,4.60554 3.19174,3.44976 -0.1456,-1.9189 z M 330.29103,802.5 c -0.001,-4.34057 -0.63174,-8.42469 -1.65985,-10.75 -2.25753,-5.10594 -3.02215,-4.76761 -0.94689,0.41898 1.80701,4.51616 2.24742,11.97746 1.082,18.33102 -0.63296,3.45075 -0.57853,3.65672 0.39643,1.5 0.62157,-1.375 1.12931,-5.65 1.12831,-9.5 z m -8.30242,-5.0407 c -2.54389,-9.08588 -9.86646,-14.56347 -19.13974,-14.31733 l -5.34887,0.14198 6.6748,0.68198 c 10.59463,1.08248 16.29301,6.8794 17.68803,17.9939 0.37635,2.99855 0.69632,3.72627 0.94232,2.1432 0.20486,-1.31834 -0.16259,-4.30801 -0.81654,-6.64373 z m -42.96041,-6.58762 c 2.38799,-4.609 4.1207,-5.9924 5.78425,-4.61815 1.33399,1.10201 1.3462,0.98527 0.10533,-1.00727 l -1.40354,-2.25373 -1.82347,2.25373 c -3.13452,3.87415 -5.65081,10.10857 -5.55119,13.75374 0.0873,3.19472 0.16387,3.0963 0.87774,-1.12832 0.43014,-2.54558 1.33503,-5.69558 2.01088,-7 z m 12.34962,-2.63026 C 293.40829,786.45864 294.67279,785 294.18781,785 c -2.44394,0 -10.20739,9.84349 -10.16585,12.88955 0.0121,0.88575 0.84144,-0.19341 1.84302,-2.39813 1.00158,-2.20472 3.48236,-5.46722 5.51284,-7.25 z M 326,786.67431 c 0,-0.17912 -1.2375,-1.41662 -2.75,-2.75 L 320.5,781.5 l 2.42431,2.75 C 325.1902,786.82029 326,787.45859 326,786.67431 Z m -6,-5.15399 c 0,-0.26382 -1.83996,-1.41835 -4.0888,-2.56562 -2.65058,-1.35223 -6.60774,-2.22218 -11.25,-2.47324 l -7.1612,-0.38729 7.2428,0.92533 c 3.98355,0.50894 8.93355,1.81786 11,2.90872 4.25073,2.24392 4.2572,2.24634 4.2572,1.5921 z m -27.4254,-2.64103 c 0.84582,-1.36855 -0.98367,-1.03519 -3.13347,0.57097 -1.87274,1.39917 -1.86131,1.43015 0.32445,0.8793 1.24607,-0.31404 2.51013,-0.96666 2.80902,-1.45027 z m 4.15457,-1.48346 c -0.33229,-0.33229 -1.1948,-0.36781 -1.91667,-0.0789 -0.79773,0.31922 -0.56078,0.55618 0.60417,0.60416 1.05416,0.0434 1.64479,-0.19293 1.3125,-0.52522 z m 135.82865,52.17327 c -5.68492,-2.11345 -8.71935,-4.64901 -11.55782,-9.65768 -2.40221,-4.23886 -2.51266,-5.20353 -2.82371,-24.66142 l -0.32371,-20.25 5.82371,0.002 5.82371,0.002 v 18.92597 c 0,17.64904 0.14138,19.11637 2.09551,21.748 4.48836,6.0445 14.14101,6.42179 19.46438,0.76081 2.38871,-2.54022 2.44663,-3.00395 2.74954,-22.01682 L 454.11885,775 H 459.55943 465 l -0.006,18.75 c -0.006,20.274 -0.68529,24.54074 -4.65864,29.2628 -5.6581,6.72426 -18.91171,9.85245 -27.77796,6.5563 z M 440,828.09362 c 0,-0.49851 -0.87027,-0.6788 -1.93394,-0.40065 -2.73365,0.71487 -8.55055,-1.40315 -12.34146,-4.49371 -2.92351,-2.3834 -3.03786,-2.40888 -1.2246,-0.27283 3.55045,4.18249 15.5,8.16608 15.5,5.16719 z m 15.173,-2.21681 c 3.20957,-2.28541 6.82861,-6.66738 6.82326,-8.26167 -0.002,-0.61333 -0.83874,0.25412 -1.85929,1.92766 -2.25727,3.70153 -6.30057,6.54623 -11.63697,8.18728 l -4,1.23009 3.96624,-0.56597 c 2.18143,-0.31128 5.19947,-1.4441 6.70676,-2.51739 z m -11.41134,-3.56389 c -0.95609,-0.25029 -2.75609,-0.25937 -4,-0.0202 -1.24391,0.23919 -0.46166,0.44398 1.73834,0.45508 2.2,0.0111 3.21775,-0.18461 2.26166,-0.4349 z M 435.5,820.82961 c -1.1,-0.61027 -2.69705,-1.60908 -3.54901,-2.21959 -0.85195,-0.61051 -0.48936,-0.0975 0.80576,1.13998 1.29513,1.2375 2.89218,2.23632 3.54901,2.21959 0.65683,-0.0167 0.29424,-0.52972 -0.80576,-1.13998 z M 450.7824,819.25 c 1.54767,-1.5125 1.89227,-2.02396 0.76577,-1.13657 -1.12649,0.88739 -2.94817,2.1112 -4.04817,2.71959 -1.1,0.60839 -1.4446,1.11985 -0.76578,1.13657 0.67883,0.0167 2.5005,-1.20709 4.04818,-2.71959 z m -29.75659,-5.25678 c -0.51907,-2.20833 -0.85874,-2.6957 -0.92345,-1.32501 -0.10286,2.17891 0.88477,5.67799 1.44462,5.11814 0.16495,-0.16495 -0.0696,-1.87186 -0.52117,-3.79313 z m 8.31927,0.46365 c -0.32569,-0.84872 -0.80663,-1.32866 -1.06875,-1.06653 -0.26213,0.26213 -0.17998,0.95654 0.18255,1.54313 0.98605,1.59546 1.56238,1.28551 0.8862,-0.4766 z m 33.3172,-1.70687 c -0.27741,-0.6875 -0.50439,-0.125 -0.50439,1.25 0,1.375 0.22698,1.9375 0.50439,1.25 0.27741,-0.6875 0.27741,-1.8125 0,-2.5 z M 455.98469,795.25 456,778 h 3.43045 c 2.76243,0 3.51484,0.43815 3.86382,2.25 0.37157,1.92915 0.45279,1.85784 0.56955,-0.5 C 463.9932,777.13723 463.77544,777 459.5,777 H 455 v 17.41821 c 0,9.58002 -0.26745,18.24252 -0.59433,19.25 -0.49429,1.52346 -0.41271,1.5793 0.48468,0.33179 0.67082,-0.93253 1.08482,-8.02587 1.09434,-18.75 z m -28.23895,-9.44942 c -0.18186,-5.11532 -0.33151,-1.20058 -0.33256,8.69942 -0.001,9.9 0.14774,14.08526 0.33065,9.30058 0.18291,-4.78468 0.18377,-12.88468 0.002,-18 z M 420.68933,800.25 c -0.25153,-0.9625 -0.45733,-0.175 -0.45733,1.75 0,1.925 0.2058,2.7125 0.45733,1.75 0.25152,-0.9625 0.25152,-2.5375 0,-3.5 z m 42.99378,0.5625 c -0.31922,-0.79773 -0.55618,-0.56078 -0.60416,0.60417 -0.0434,1.05416 0.19293,1.64479 0.52522,1.3125 0.33229,-0.33229 0.36781,-1.1948 0.0789,-1.91667 z M 464,786 c 0,-1.1 -0.17252,-2 -0.38337,-2 -0.21085,0 -0.61872,0.9 -0.90638,2 -0.28766,1.1 -0.11514,2 0.38337,2 0.49851,0 0.90638,-0.9 0.90638,-2 z m -39.25,-8.68933 c -0.9625,-0.25152 -2.5375,-0.25152 -3.5,0 -0.9625,0.25153 -0.175,0.45733 1.75,0.45733 1.925,0 2.7125,-0.2058 1.75,-0.45733 z m 196.45496,51.7951 c -7.10983,-2.45577 -12.09492,-6.64886 -15.67448,-13.1842 -2.56146,-4.67655 -2.96484,-6.4522 -2.93542,-12.92157 0.0261,-5.73462 0.57669,-8.62287 2.33923,-12.27039 10.3493,-21.41752 43.30145,-20.94033 53.19837,0.77039 2.7717,6.08023 2.50141,16.65818 -0.58771,23 -2.59993,5.33754 -4.82231,8.5 -5.97329,8.5 -0.38932,0 0.25998,-1.4625 1.44289,-3.25 l 2.15074,-3.25 -2.52313,2.94178 c -1.38773,1.61799 -2.32063,3.26945 -2.07312,3.66993 0.79952,1.29366 -4.7053,4.85127 -9.88807,6.39039 -6.64927,1.97462 -12.98503,1.84569 -19.47601,-0.39633 z M 629.5,829 c -0.33992,-0.55 -1.82898,-0.94676 -3.30902,-0.88169 L 623.5,828.23663 626.5,829 c 1.65,0.41985 3.13906,0.81661 3.30902,0.88169 0.16996,0.0651 0.0309,-0.33169 -0.30902,-0.88169 z m 7.12818,-0.79818 c -1.5795,-0.19699 -3.2666,0.0366 -3.7491,0.5191 -0.50302,0.50302 0.72209,0.65582 2.87183,0.35817 3.45117,-0.47784 3.52089,-0.54755 0.87727,-0.87727 z m -18.43341,-2.79205 c -2.85885,-1.42463 -6.59383,-4.23713 -8.29995,-6.25 -1.70612,-2.01287 -2.64414,-2.75977 -2.08448,-1.65977 2.10386,4.13514 10.51604,10.35975 14.136,10.45996 0.79549,0.022 -0.89271,-1.12556 -3.75157,-2.55019 z m 27.55523,0.60119 c 1.7875,-1.08986 3.25,-2.26828 3.25,-2.61871 0,-0.35043 -0.59349,-0.14459 -1.31886,0.45741 -0.72537,0.60201 -2.86287,1.76449 -4.75,2.58331 -1.88713,0.81881 -2.75614,1.50468 -1.93114,1.52415 0.825,0.0195 2.9625,-0.8563 4.75,-1.94616 z m -7.21788,-4.45993 C 640.43945,820.75409 642,819.87705 642,819.60205 c 0,-0.275 -1.67422,0.19954 -3.72049,1.05452 -2.4204,1.01131 -5.58054,1.40027 -9.04346,1.1131 -2.97686,-0.24687 -4.75288,-0.0798 -4.02951,0.37914 2.07027,1.31337 9.55517,0.97759 13.32558,-0.59778 z m -2.31317,-1.59504 c 2.04542,-0.56807 5.08292,-2.18056 6.75,-3.58331 1.66708,-1.40276 3.03105,-2.23037 3.03105,-1.83913 0,0.39124 0.675,0.15114 1.5,-0.53355 0.825,-0.68469 1.5,-1.7258 1.5,-2.31357 0,-0.58778 -0.71174,-0.19518 -1.58164,0.87244 -1.55917,1.91356 -1.57148,1.91273 -0.86692,-0.0589 2.26117,-6.32749 2.73181,-10.61123 1.58599,-14.43565 -4.03782,-13.47703 -19.91234,-17.50335 -29.32381,-7.43751 -8.6991,9.30393 -5.08615,25.0655 6.68638,29.16945 3.94345,1.37471 6.22191,1.40865 10.71895,0.1597 z M 621,819.68709 c 0,-0.1721 -1.4625,-1.6346 -3.25,-3.25 L 614.5,813.5 l 2.93709,3.25 C 620.17487,819.77946 621,820.45965 621,819.68709 Z M 645.12756,817.25 c 1.24387,-1.58606 1.2085,-1.62143 -0.37756,-0.37756 -0.9625,0.75485 -1.75,1.54235 -1.75,1.75 0,0.82304 0.82119,0.29331 2.12756,-1.37244 z M 605.5,804.25029 c 0,-4.81266 0.33304,-9.87529 0.74008,-11.25029 0.55977,-1.89089 0.38803,-1.76907 -0.70489,0.5 -1.46976,3.05143 -2.00019,13.16297 -0.9049,17.25 0.33163,1.2375 0.66299,2.25013 0.73634,2.25029 0.0734,1.7e-4 0.13337,-3.93733 0.13337,-8.75 z m 52.18311,5.56221 c -0.31922,-0.79773 -0.55618,-0.56078 -0.60416,0.60417 -0.0434,1.05416 0.19293,1.64479 0.52522,1.3125 0.33229,-0.33229 0.36781,-1.1948 0.0789,-1.91667 z m -44.63022,-2.36277 c -0.48454,-1.62235 -0.91966,-2.19903 -0.96694,-1.28152 -0.096,1.86229 0.97142,5.10775 1.50452,4.57465 0.18887,-0.18887 -0.053,-1.67077 -0.53758,-3.29313 z M 650.90574,802.5 c -0.0762,-5.98795 -0.58265,-4.99253 -1.18782,2.33466 -0.2578,3.12137 -0.0896,4.78093 0.40542,4 0.46532,-0.73406 0.8174,-3.58466 0.7824,-6.33466 z m 7.11107,-6.54119 -1.07323,-2.45881 0.51456,2.5 c 0.283,1.375 0.60394,4.75 0.71319,7.5 l 0.19863,5 0.36004,-5.04119 c 0.19802,-2.77266 -0.12292,-6.14766 -0.71319,-7.5 z m -40.24902,-6.12046 c 3.37101,-4.05012 3.40208,-4.14615 0.46769,-1.44546 -3.46027,3.18471 -6.29274,8.38496 -6.13213,11.25824 0.0569,1.01688 0.54215,0.20113 1.07845,-1.81278 0.5363,-2.0139 2.6,-5.6139 4.58599,-8 z m 31.85028,4.77607 c -0.37889,-1.50961 -0.0515,-2.83974 0.8916,-3.62244 0.81968,-0.68028 1.49033,-1.7233 1.49033,-2.31782 0,-0.59452 -0.7757,-0.12493 -1.72378,1.04353 l -1.72379,2.12447 -4.25387,-3.92108 c -2.33963,-2.15659 -4.82643,-3.9194 -5.52622,-3.91734 -0.69979,0.002 0.0968,0.83869 1.77028,1.85918 3.66246,2.23345 8.45738,7.74069 8.45738,9.71381 0,0.7828 0.27378,1.42327 0.60841,1.42327 0.33462,0 0.33897,-1.07351 0.01,-2.38558 z m 6.34076,-4.77877 c -1.84508,-3.58165 -6.1307,-7.85835 -9.45883,-9.43914 -1.67139,-0.79388 -2.15663,-0.86506 -1.09567,-0.16073 4.5744,3.03679 8.44179,6.9785 9.60705,9.79168 0.6918,1.67017 1.45871,2.83578 1.70424,2.59025 0.24553,-0.24553 -0.095,-1.49746 -0.75679,-2.78206 z M 610.5,786 c 0.99549,-1.1 1.58498,-2 1.30998,-2 -0.275,0 -1.31449,0.9 -2.30998,2 -0.99549,1.1 -1.58498,2 -1.30998,2 0.275,0 1.31449,-0.9 2.30998,-2 z m 24.25,-2.71625 c -1.5125,-0.22913 -3.9875,-0.22913 -5.5,0 -1.5125,0.22912 -0.275,0.41659 2.75,0.41659 3.025,0 4.2625,-0.18747 2.75,-0.41659 z m -8.83333,-5.92443 c 1.00348,-0.86538 -3.5663,-0.22744 -4.91667,0.68637 -1.09546,0.74131 -0.69092,0.83408 1.5,0.34401 1.65,-0.36908 3.1875,-0.83275 3.41667,-1.03038 z m 15.85921,0.57506 c -0.94827,-0.55264 -4.77327,-1.19449 -8.5,-1.42634 L 626.5,776.0865 l 6.35154,0.90726 c 3.49334,0.499 6.86834,1.11901 7.5,1.37781 2.14891,0.88043 3.15523,0.57156 1.42434,-0.43719 z m 135.95859,52.03671 c -3.43676,-0.86367 -9.19175,-3.51752 -12.58424,-5.80309 -1.08226,-0.72913 -0.804,-1.73407 1.40405,-5.07066 1.5146,-2.28872 3.022,-4.01144 3.34977,-3.82828 C 782.7384,822.44108 795,822.06533 795,814.5 c 0,-3.32425 -2.66465,-5.05762 -12.24246,-7.96376 -4.80835,-1.45897 -10.08735,-3.78432 -11.73111,-5.16746 -8.44397,-7.10513 -4.62795,-21.70495 6.6456,-25.42555 5.76009,-1.90101 16.90468,-0.72559 23.11919,2.43836 l 5.29123,2.69388 -2.06515,2.90024 c -2.24096,3.14713 -3.76555,3.24008 -8.97327,0.54706 -4.8404,-2.50307 -12.12837,-3.02961 -14.54403,-1.05077 -1.93939,1.58868 -1.92727,1.60286 0.39986,0.46778 3.06503,-1.49499 9.92567,-0.5796 14.97952,1.99868 2.13014,1.08672 4.1537,1.69513 4.4968,1.35203 0.3431,-0.3431 0.62382,-0.17382 0.62382,0.37618 0,2.04532 -1.15733,1.98166 -5.68983,-0.31298 -4.9421,-2.50201 -12.02899,-3.10972 -15.37591,-1.31851 -2.76664,1.48067 -2.57732,6.50247 0.31574,8.37511 1.2375,0.80102 5.30531,2.15905 9.03958,3.01784 8.44759,1.94275 11.72431,3.61123 15.19687,7.73814 2.4113,2.86566 2.67798,3.88372 2.31866,8.85131 -0.49424,6.83285 -3.28727,11.16743 -9.10991,14.13792 -4.70192,2.39874 -14.20178,3.26283 -19.96073,1.81559 z m 6.1822,-1.33193 C 783.6875,828.4407 781.475,828.01056 779,827.68331 c -3.00479,-0.3973 -3.83546,-0.30076 -2.5,0.29056 1.90986,0.84565 8.2853,1.41754 7.41667,0.66529 z M 793,828.60504 c 0,-0.21724 -1.8,-0.56663 -4,-0.77643 -2.2,-0.2098 -4,-0.0321 -4,0.39496 0,0.42704 1.8,0.77643 4,0.77643 2.2,0 4,-0.17773 4,-0.39496 z m 5.69567,-2.56104 c 4.24531,-2.58853 6.08837,-5.60291 6.75255,-11.044 l 0.54931,-4.5 -1.34785,5.21569 c -1.58821,6.14586 -2.78515,7.7739 -7.57839,10.30791 -1.96421,1.0384 -3.12129,1.90621 -2.57129,1.92847 0.55,0.0222 2.43805,-0.83638 4.19567,-1.90807 z M 770.75,824.93191 c -4.23494,-2.2357 -4.38096,-2.57723 -2.154,-5.03799 1.29653,-1.43265 2.04562,-1.5587 3.99219,-0.67179 1.98716,0.90542 2.18414,1.34845 1.15399,2.59548 -1.0959,1.32662 -0.97848,1.33948 0.99704,0.10923 2.23763,-1.39348 2.23671,-1.39575 -1.29971,-3.21005 -3.51237,-1.80195 -3.55332,-1.79832 -5.45595,0.48382 -1.05436,1.26466 -1.93199,2.6435 -1.95029,3.06409 -0.0401,0.92048 6.05161,4.74462 7.46673,4.68737 0.55,-0.0223 -0.6875,-0.93132 -2.75,-2.02016 z m 22.50362,-3.70097 c 1.78551,-0.97298 3.39365,-2.6135 3.57365,-3.6456 0.25094,-1.43882 -0.24961,-1.20587 -2.14589,0.99869 -2.02235,2.35112 -3.54027,2.98886 -8.32727,3.49858 l -5.85411,0.62335 4.75362,0.14702 c 2.90687,0.0899 6.01483,-0.54025 8,-1.62204 z M 801,818.55902 c 0,-0.24254 -0.45,-0.7191 -1,-1.05902 -0.55,-0.33992 -1,-0.14148 -1,0.44098 0,0.58246 0.45,1.05902 1,1.05902 0.55,0 1,-0.19844 1,-0.44098 z m -6.00884,-9.06843 c -1.29253,-1.37584 -4.85681,-3.21476 -7.92061,-4.0865 -3.0638,-0.87174 -7.82055,-2.43351 -10.57055,-3.4706 -3.67683,-1.38663 -4.47581,-1.48733 -3.0192,-0.38055 1.08944,0.82779 3.78944,1.99558 6,2.59507 10.30832,2.7956 13.68391,4.19562 15.28779,6.34059 0.95228,1.27354 1.92068,2.13282 2.15202,1.90952 0.23134,-0.22331 -0.63692,-1.53169 -1.92945,-2.90753 z m 6.66548,-5.16645 C 799.66164,802.49586 797.50621,801 796.8668,801 c -0.63941,0 0.36648,1.02355 2.23532,2.27456 1.86883,1.25101 3.84535,3.2836 4.39226,4.51685 0.54691,1.23326 1.17329,1.70557 1.39196,1.04958 0.21866,-0.65599 -1.23471,-2.68857 -3.2297,-4.51685 z m -21.27508,-4.87608 c 0.34149,-0.88992 0.17385,-1.29132 -0.39301,-0.94098 -0.5437,0.33602 -0.98855,1.0344 -0.98855,1.55194 0,1.43843 0.71677,1.12146 1.38156,-0.61096 z M 791.5,799.55481 c -6.19809,-1.93295 -10.06188,-2.78336 -9.3326,-2.05408 0.81725,0.81725 9.77553,3.32395 11.8326,3.31098 0.825,-0.005 -0.3,-0.5708 -2.5,-1.2569 z m -21.47202,-2.98122 c -1.59126,-4.18533 -1.21349,-9.75709 0.89609,-13.21676 3.79638,-6.22597 16.39778,-8.02397 26.85515,-3.83177 3.57709,1.43401 4.18388,2.06492 3.69822,3.84521 -0.57664,2.11375 -0.56893,2.11472 1.02653,0.12973 1.54293,-1.91962 1.39429,-2.10006 -3.69822,-4.48966 -6.72009,-3.15331 -18.4068,-3.49596 -23.59997,-0.69194 -6.27594,3.38866 -9.11826,12.39005 -6.04334,19.13877 1.51345,3.32167 2.19849,2.62235 0.86554,-0.88358 z M 781,796.3209 c 0,-0.13779 -0.825,-0.69206 -1.83333,-1.2317 -1.31654,-0.70459 -1.83334,-0.63397 -1.83334,0.25053 0,0.67743 0.825,1.2317 1.83334,1.2317 1.00833,0 1.83333,-0.11274 1.83333,-0.25053 z M 358,802.5 V 775 h 5.5 5.5 v 22.5 22.5 h 12.36667 12.36666 v 5 5 H 375.86667 358 Z m 34,22.55715 v -3.94284 l -12.50182,-0.30716 c -6.876,-0.16893 -12.501,0.0303 -12.5,0.44285 0.002,0.69197 2.55418,1.07316 3.34813,0.5 0.19046,-0.1375 1.17684,0.425 2.19195,1.25 1.05944,0.86102 1.52575,0.96752 1.09468,0.25 -0.57872,-0.96328 1.32698,-1.25 8.30804,-1.25 H 391 v 3 3 h -15.5102 -15.5102 l 0.0571,-25.07257 0.0571,-25.07258 3.39943,0.29288 c 1.86968,0.16108 3.72355,-0.0313 4.11972,-0.42743 C 368.0092,777.32414 366.23333,777 363.66667,777 H 359 v 26 26 h 16.5 16.5 z m -25.31689,-8.24465 c -0.31922,-0.79773 -0.55618,-0.56078 -0.60416,0.60417 -0.0434,1.05416 0.19293,1.64479 0.52522,1.3125 0.33229,-0.33229 0.36781,-1.1948 0.0789,-1.91667 z m 0.0454,-12.5625 c -0.21575,-2.0625 -0.39226,-0.375 -0.39226,3.75 0,4.125 0.17651,5.8125 0.39226,3.75 0.21574,-2.0625 0.21574,-5.4375 0,-7.5 z m -2.94137,7.05175 c 0.21218,-2.56372 0.15252,-2.60143 -1.19665,-0.75633 -1.27644,1.74563 -1.07829,2.46951 0.94144,3.43927 0.0175,0.008 0.13239,-1.1989 0.25521,-2.68294 z m 0.59446,-8.85369 c 0.34149,-0.88992 0.17385,-1.29132 -0.39301,-0.94098 -0.5437,0.33602 -0.98855,1.0344 -0.98855,1.55194 0,1.43843 0.71677,1.12146 1.38156,-0.61096 z m 2.3257,-7.6864 c -0.23919,-1.24391 -0.44398,-0.46166 -0.45508,1.73834 -0.0111,2.2 0.18461,3.21775 0.4349,2.26166 0.25029,-0.95609 0.25937,-2.75609 0.0202,-4 z m -0.0179,-7.51166 c -0.25153,-0.9625 -0.45733,-0.175 -0.45733,1.75 0,1.925 0.2058,2.7125 0.45733,1.75 0.25152,-0.9625 0.25152,-2.5375 0,-3.5 z m 141.313,20.5 0.002,-22.25 -8.50234,0.32347 L 491,786.14695 V 780.57347 775 h 22.76899 22.76899 l -0.17713,5.25 -0.17714,5.25 -8.34185,0.13381 -8.34186,0.13381 v 22.11666 22.11666 l -5.75,-4.7e-4 L 508,830 Z m 10.22854,-1 0.26913,-22.25 8.25,-0.29044 8.25,-0.29044 V 780.45956 777 l -21.75,0.22902 -21.75,0.22902 21.25,0.29087 21.25,0.29087 v 2.48011 c 0,2.41603 -0.19061,2.48011 -7.37756,2.48011 -4.88318,0 -7.74719,0.44539 -8.47083,1.31732 -0.70799,0.85307 -1.12798,8.79209 -1.19172,22.52699 l -0.0984,21.20967 -2.68072,-0.27699 L 511.5,827.5 l -0.53009,-21 -0.5301,-21 -0.2199,21.75 L 510,829 h 3.98087 3.98087 z M 507.5,783 c -2.2,-0.275 -6.7,-0.27956 -10,-0.0101 -5.85799,0.47828 -5.78699,0.50195 3,1 9.36377,0.53074 13.96248,-0.11957 7,-0.98988 z M 563,802.5 V 775 h 5.5 5.5 v 27.5 27.5 h -5.5 -5.5 z m 10,0.5 c 0,-24.10107 -0.12781,-25.99888 -1.75,-25.98469 -0.9961,0.009 -1.31548,0.33182 -0.74138,0.75 1.4249,1.03791 1.9054,21.23469 0.50519,21.23469 -0.69108,0 -0.77467,0.6345 -0.23052,1.75 1.46994,3.01339 1.50414,9.45258 0.0551,10.37106 -0.99865,0.63298 -1.02108,0.8522 -0.0884,0.86363 0.89456,0.011 1.25,2.29014 1.25,8.01531 v 8 H 568.5 565 V 803.06955 778.1391 l 2.25,-0.43337 c 1.92915,-0.37157 1.85784,-0.45279 -0.5,-0.56955 L 564,777 v 26 26 h 4.5 4.5 z m 114.5,-0.5 V 775 l 4,4.9e-4 c 3.5652,4.4e-4 4.47359,0.55043 8.35693,5.05973 2.39632,2.78259 4.13016,5.28602 3.853,5.56319 -0.27717,0.27716 -2.22058,-1.54972 -4.3187,-4.05974 C 696.28206,777.84411 694.96827,777 692.28824,777 H 689 v 26 26 h 4 4 l -0.2123,-16.75 -0.2123,-16.75 -0.5377,16 -0.5377,16 -2.75,0.18826 -2.75,0.18827 V 802.93826 778 h 2.42857 c 2.48922,0 3.05039,0.42091 7.86032,5.89562 1.53388,1.74589 3.1901,2.92638 3.68047,2.62332 0.92817,-0.57365 18.59847,20.24657 17.83305,21.01198 -0.23951,0.23951 -3.95769,-3.84537 -8.26262,-9.07751 -4.30493,-5.23214 -8.325,-9.81639 -8.93347,-10.18723 -0.60848,-0.37084 0.79481,1.60393 3.11841,4.38838 2.32361,2.78445 3.89861,5.42342 3.5,5.86437 -0.3986,0.44094 -0.16223,0.47802 0.52527,0.0824 1.14191,-0.65714 1.72541,0.52537 1.34364,2.72302 -0.0788,0.45338 0.25923,0.57562 0.75107,0.27164 0.49185,-0.30397 3.00785,2.13758 5.59113,5.42567 2.58327,3.2881 4.96175,5.97836 5.2855,5.97836 0.32375,0 -0.15611,-0.82293 -1.06635,-1.82874 -2.20049,-2.43151 -2.12644,-3.90851 0.095,-1.89521 1.66158,1.50589 1.73418,0.68005 1.43688,-16.34501 L 724.87375,775 H 730.43688 736 v 27.5 27.5 l -4.25,-0.0216 c -4.0118,-0.0203 -4.54425,-0.38406 -9.5,-6.48959 -5.9896,-7.37925 -6.72743,-9.19727 -2,-4.92805 l 3.25,2.935 -3.44617,-3.74791 c -3.54368,-3.85395 -4.70405,-4.69024 -3.46592,-2.4979 1.602,2.83665 -7.45567,-6.66701 -12.08791,-12.68311 -2.75,-3.57154 -5.225,-6.51047 -5.5,-6.53095 -0.275,-0.0205 -0.4004,7.61305 -0.27866,16.96341 L 698.94269,830 H 693.22134 687.5 Z M 735,803 v -26 h -4 -4 v 17.16667 c 0,9.44166 0.25004,16.91663 0.55564,16.61102 0.3056,-0.3056 0.53097,-7.8056 0.50081,-16.66666 L 728.00162,778 H 731.00081 734 v 25.13084 25.13084 l -3.52241,-0.5716 c -2.08935,-0.33906 -3.28586,-0.18887 -2.94098,0.36915 0.31978,0.51743 2.12987,0.94077 4.02241,0.94077 H 735 Z m -8,22.65499 c 0,-0.18976 -1.0125,-1.20226 -2.25,-2.25 L 722.5,821.5 l 1.90499,2.25 c 1.79022,2.11444 2.59501,2.70524 2.59501,1.90499 z m -12.83483,-14.97918 c -1.20091,-1.2783 -1.84185,-2.6658 -1.42432,-3.08333 0.41753,-0.41753 0.2251,-0.60915 -0.42762,-0.42581 -0.65272,0.18333 -2.45272,-1.04142 -4,-2.72168 -1.54728,-1.68025 -2.15296,-2.13025 -1.34597,-1 1.94848,2.72898 8.31372,9.55501 8.91,9.55501 0.25925,0 -0.51119,-1.04588 -1.71209,-2.32419 z m -10.86849,-13.07787 c -0.98817,-1.32113 -1.98142,-2.22389 -2.20722,-2.00613 -0.41142,0.39679 2.87565,4.40819 3.61221,4.40819 0.21544,0 -0.41681,-1.08093 -1.40499,-2.40206 z m 1.16061,-3.52884 c 0.31644,-0.512 0.19299,-1.1672 -0.27431,-1.45601 -0.46731,-0.28881 -0.84965,0.13009 -0.84965,0.9309 0,1.68617 0.31534,1.83349 1.12396,0.52511 z M 749.75,732.253 c 6.7375,-0.17301 17.7625,-0.17301 24.5,0 6.7375,0.17301 1.225,0.31456 -12.25,0.31456 -13.475,0 -18.9875,-0.14155 -12.25,-0.31456 z m 38,0.0847 c 0.6875,-0.27741 1.8125,-0.27741 2.5,0 0.6875,0.27741 0.125,0.50439 -1.25,0.50439 -1.375,0 -1.9375,-0.22698 -1.25,-0.50439 z m 8,-0.0699 c 2.3375,-0.21053 6.1625,-0.21053 8.5,0 2.3375,0.21054 0.425,0.3828 -4.25,0.3828 -4.675,0 -6.5875,-0.17226 -4.25,-0.3828 z m -23.9375,-60.9509 c 0.72187,-0.28887 1.58438,-0.25335 1.91667,0.0789 0.33229,0.33229 -0.25834,0.56864 -1.3125,0.52522 -1.16495,-0.048 -1.4019,-0.28494 -0.60417,-0.60416 z m 5.4375,-0.0331 c 1.5125,-0.22913 3.9875,-0.22913 5.5,0 1.5125,0.22912 0.275,0.41659 -2.75,0.41659 -3.025,0 -4.2625,-0.18747 -2.75,-0.41659 z M 490.12287,582.97876 c -5.95148,-8.15692 -6.64681,-10.21481 -1.51329,-4.47876 l 3.57982,4 -3.18249,-4.25476 c -1.75038,-2.34011 -3.54442,-4.03108 -3.98676,-3.75769 -0.88713,0.54827 -13.46006,-14.32547 -43.52296,-51.48755 -10.90083,-13.475 -22.73666,-27.77297 -26.30184,-31.77327 -3.56518,-4.0003 -6.26368,-7.49173 -5.99668,-7.75873 0.267,-0.26701 4.22417,3.79346 8.7937,9.02327 4.56953,5.2298 8.5075,9.50873 8.75105,9.50873 0.41152,0 -3.44807,-4.69815 -10.62996,-12.93946 -1.64852,-1.8917 -2.7263,-3.9167 -2.39506,-4.5 0.33124,-0.5833 0.22912,-0.72206 -0.22692,-0.30836 -0.45605,0.4137 -1.55097,0.099 -2.43317,-0.69941 -0.88219,-0.79837 -2.08944,-1.13686 -2.68277,-0.75218 -1.1373,0.73736 0.14008,8.26252 7.54649,44.45692 l 3.83833,18.7575 -3.13018,-1.89782 C 414.90858,543.07339 405.175,537.20521 395,531.0768 c -10.175,-6.12842 -19.93542,-12.66662 -21.68982,-14.52933 -1.7544,-1.86272 -3.69112,-5.33542 -4.30382,-7.71712 -0.61271,-2.38169 -4.45012,-16.23251 -8.5276,-30.7796 -4.07747,-14.54709 -7.31575,-26.52155 -7.19617,-26.60991 0.11957,-0.0884 7.21854,-3.1487 15.77548,-6.80075 L 384.61615,438 h 38.25056 38.25057 l 3.91168,3.14351 c 2.15142,1.72894 3.71604,3.46007 3.47692,3.84698 -0.44687,0.72304 3.44316,4.5808 6.99412,6.9361 1.1,0.72962 -0.025,-0.51696 -2.5,-2.77017 -7.57421,-6.89546 -3.44875,-4.61812 7.07977,3.90818 5.47713,4.43554 9.73869,8.42012 9.47014,8.85464 -0.26855,0.43452 0.73536,1.86795 2.23091,3.1854 L 494.5,467.5 l -2.42431,-2.75 c -1.33338,-1.5125 -1.97432,-2.75 -1.42432,-2.75 1.34051,0 5.51342,4.50188 4.81774,5.19755 -0.30204,0.30205 1.83134,2.45179 4.74086,4.7772 l 5.29003,4.22802 -5,-4.58082 c -6.67666,-6.11691 -5.02312,-5.85266 3.04306,0.4863 l 6.50012,5.10824 8.03641,-6.2169 c 4.42003,-3.4193 8.26642,-5.98691 8.54753,-5.7058 0.28111,0.28111 -3.11999,3.27523 -7.55801,6.6536 -4.43801,3.37837 -8.06911,6.37994 -8.06911,6.67015 0,0.29021 3.7125,-2.3369 8.25,-5.83801 4.5375,-3.50112 8.25,-7.00531 8.25,-7.7871 0,-0.78178 6.3,-6.49652 14,-12.69942 13.54598,-10.91225 17.86665,-13.72217 13.90499,-9.04301 l -1.90499,2.25 2.22642,-1.88365 c 1.22453,-1.036 2.01698,-2.22251 1.76101,-2.63669 -1.6753,-2.7107 3.32854,-3.03865 42.15498,-2.76282 L 639.5,438.5 l 14.63427,6.41692 14.63428,6.41693 -2.29659,8.58307 c -13.35567,49.91436 -14.11986,52.32275 -18.10492,57.05872 -1.36267,1.61944 -9.54021,7.30838 -18.17231,12.64209 -8.6321,5.3337 -18.51304,11.64067 -21.95764,14.01549 -5.57548,3.84391 -6.20957,4.07357 -5.77689,2.09231 0.91558,-4.19253 7.49708,-39.21805 9.43736,-50.22393 1.06643,-6.04913 1.7404,-11.19698 1.4977,-11.43967 -0.24269,-0.2427 -1.20582,0.65659 -2.14027,1.9984 -3.25108,4.66834 -9.58967,11.01689 -10.17044,10.18642 -0.3215,-0.45974 -2.14058,0.98416 -4.04239,3.20868 l -3.45783,4.04457 3.70783,-3.44617 c 2.03931,-1.89539 3.70784,-3.09999 3.70784,-2.6769 0,1.2918 -11.24831,13.58764 -12.00323,13.12107 -0.38833,-0.24 -1.78396,0.78727 -3.10141,2.28282 L 583.5,515.5 l 2.75,-2.42431 c 1.5125,-1.33338 2.75,-2.1052 2.75,-1.71516 0,1.40719 -13.20324,16.63189 -13.99776,16.14086 -0.44791,-0.27683 -2.70228,1.85961 -5.0097,4.74764 l -4.19531,5.25097 4.58082,-5 c 2.51945,-2.75 4.59007,-4.62712 4.60138,-4.17139 0.0358,1.44364 -12.09278,15.71937 -12.92051,15.20781 -0.43539,-0.26909 -1.63927,0.51263 -2.67527,1.73716 L 557.5,547.5 l 2.25,-1.90499 c 4.83228,-4.0913 1.71635,0.46155 -8.83207,12.90499 -6.06112,7.15 -14.2597,17.15862 -18.21907,22.24137 l -7.19886,9.24137 -15.12713,0.009 -15.12713,0.009 z m 35.6063,4.41707 c -0.33229,-0.33229 -1.1948,-0.36781 -1.91667,-0.0789 -0.79773,0.31922 -0.56078,0.55618 0.60417,0.60416 1.05416,0.0434 1.64479,-0.19293 1.3125,-0.52522 z m 2.39839,-3.14583 c 1.24387,-1.58606 1.2085,-1.62143 -0.37756,-0.37756 -0.9625,0.75485 -1.75,1.54235 -1.75,1.75 0,0.82304 0.82119,0.29331 2.12756,-1.37244 z m 8.05388,-10 c 11.30368,-13.47646 12.3358,-14.78009 10.65529,-13.45826 -0.90323,0.71045 -1.83725,0.93545 -2.07559,0.5 -0.23834,-0.43546 -0.31517,-0.2786 -0.17072,0.34857 0.14444,0.62717 -0.49181,1.9843 -1.4139,3.01585 -0.92208,1.03155 -3.89675,4.56841 -6.61036,7.85969 -2.71361,3.29128 -5.59586,6.77165 -6.40499,7.73415 -0.80913,0.9625 -1.24818,1.75 -0.97568,1.75 0.27251,0 3.42069,-3.4875 6.99595,-7.75 z M 485,572.65499 c 0,-0.18976 -1.0125,-1.20226 -2.25,-2.25 L 480.5,568.5 l 1.90499,2.25 c 1.79022,2.11444 2.59501,2.70524 2.59501,1.90499 z m -7.99746,-9.65195 c -2.30103,-2.74833 -4.70543,-5.31752 -5.34311,-5.70933 -0.63769,-0.3918 1.03273,1.85684 3.71204,4.99697 2.67931,3.14012 5.08372,5.70932 5.34312,5.70932 0.25941,0 -1.41101,-2.24863 -3.71205,-4.99696 z M 551,556.5 c 1.29175,-1.375 2.12363,-2.5 1.84863,-2.5 -0.275,0 -1.55688,1.125 -2.84863,2.5 -1.29175,1.375 -2.12363,2.5 -1.84863,2.5 0.275,0 1.55688,-1.125 2.84863,-2.5 z M 466.90299,551 c -2.31884,-2.75 -4.44037,-5 -4.71451,-5 -0.51479,0 1.43605,2.47275 5.71979,7.25 4.17823,4.65958 3.45382,3.03823 -1.00528,-2.25 z m 69.78012,-0.1875 c -0.31922,-0.79773 -0.55618,-0.56078 -0.60416,0.60417 -0.0434,1.05416 0.19293,1.64479 0.52522,1.3125 0.33229,-0.33229 0.36781,-1.1948 0.0789,-1.91667 z M 555.5,551 c 0.99549,-1.1 1.58498,-2 1.30998,-2 -0.275,0 -1.31449,0.9 -2.30998,2 -0.99549,1.1 -1.58498,2 -1.30998,2 0.275,0 1.31449,-0.9 2.30998,-2 z m -94.36888,-7.34201 c -0.61257,-0.7381 -0.89267,-1.6381 -0.62244,-2 0.27022,-0.36189 0.19522,-0.43689 -0.16667,-0.16667 -0.3619,0.27023 -1.3744,-0.0536 -2.25,-0.71973 -0.87561,-0.66609 -0.50107,0.0128 0.8323,1.50867 2.4341,2.73071 4.29267,3.89104 2.20681,1.37773 z M 605.5,544 c 0.33992,-0.55 0.14148,-1 -0.44098,-1 -0.58246,0 -1.05902,0.45 -1.05902,1 0,0.55 0.19844,1 0.44098,1 0.24254,0 0.7191,-0.45 1.05902,-1 z M 418,542.52568 c 0,-0.26088 -1.35,-1.17243 -3,-2.02568 -3.76088,-1.94483 -3.98844,-1.10011 -0.25,0.92803 3.14255,1.70486 3.25,1.74115 3.25,1.09765 z M 564.5,540 c 0.99549,-1.1 1.58498,-2 1.30998,-2 -0.275,0 -1.31449,0.9 -2.30998,2 -0.99549,1.1 -1.58498,2 -1.30998,2 0.275,0 1.31449,-0.9 2.30998,-2 z m 41.19299,-1.73097 c -0.25354,-0.97297 -0.47766,-0.41903 -0.49804,1.23097 -0.0204,1.65 0.18706,2.44606 0.46099,1.76903 0.27392,-0.67703 0.29059,-2.02703 0.0371,-3 z m 3.79993,2.74242 c 0.35034,-0.56686 -0.0511,-0.7345 -0.94098,-0.39301 -1.73242,0.66479 -2.04939,1.38156 -0.61096,1.38156 0.51754,0 1.21592,-0.44485 1.55194,-0.98855 z m -193.42777,-5.61052 -0.96631,-3.90093 0.14428,3.5 c 0.15062,3.65392 0.66581,5.4244 1.37275,4.71747 0.22858,-0.22858 -0.0192,-2.17102 -0.55072,-4.31654 z M 411,538.53518 c 0,-0.25565 -1.0125,-0.95547 -2.25,-1.55516 -2.16063,-1.04704 -2.17289,-1.02858 -0.30887,0.46481 2.04026,1.63459 2.55887,1.85557 2.55887,1.09035 z m 46,0.11981 c 0,-0.18976 -1.0125,-1.20226 -2.25,-2.25 L 452.5,534.5 l 1.90499,2.25 c 1.79022,2.11444 2.59501,2.70524 2.59501,1.90499 z m 162.5,-4.13688 2,-1.62844 -2,0.98189 c -1.1,0.54004 -2.9,1.71469 -4,2.61033 l -2,1.62844 2,-0.98189 c 1.1,-0.54004 2.9,-1.71469 4,-2.61033 z M 406,535.53518 c 0,-0.25565 -1.0125,-0.95547 -2.25,-1.55516 -2.16063,-1.04704 -2.17289,-1.02858 -0.30887,0.46481 2.04026,1.63459 2.55887,1.85557 2.55887,1.09035 z M 606.66228,532.75 c -0.27741,-0.6875 -0.50439,-0.125 -0.50439,1.25 0,1.375 0.22698,1.9375 0.50439,1.25 0.27741,-0.6875 0.27741,-1.8125 0,-2.5 z M 453,533.65499 c 0,-0.18976 -1.0125,-1.20226 -2.25,-2.25 L 448.5,529.5 l 1.90499,2.25 c 1.79022,2.11444 2.59501,2.70524 2.59501,1.90499 z m -52.33333,-2.111 c 0,-0.80081 -0.34046,-1.2456 -0.75657,-0.98843 -0.41611,0.25717 -2.47861,-0.51893 -4.58333,-1.72466 -4.78032,-2.7385 -3.67282,-1.33232 1.41397,1.79529 2.06759,1.27127 3.79676,2.32544 3.84259,2.3426 0.0458,0.0172 0.0833,-0.624 0.0833,-1.4248 z M 626,530.42963 c 0,-0.275 -0.9,-0.0183 -2,0.57037 -1.1,0.5887 -2,1.29537 -2,1.57037 0,0.275 0.9,0.0183 2,-0.57037 1.1,-0.5887 2,-1.29537 2,-1.57037 z M 414.68311,528.8125 c -0.31922,-0.79773 -0.55618,-0.56078 -0.60416,0.60417 -0.0434,1.05416 0.19293,1.64479 0.52522,1.3125 0.33229,-0.33229 0.36781,-1.1948 0.0789,-1.91667 z M 607.66228,527.75 c -0.27741,-0.6875 -0.50439,-0.125 -0.50439,1.25 0,1.375 0.22698,1.9375 0.50439,1.25 0.27741,-0.6875 0.27741,-1.8125 0,-2.5 z m -160.8398,-1.59343 C 445.54512,524.59269 440.7875,518.67669 436.25,513.00992 431.7125,507.34314 428,503.02169 428,503.40669 428,504.56788 447.75505,529 448.69395,529 c 0.24805,0 -0.59411,-1.27954 -1.87147,-2.84343 z M 634,525.42963 c 0,-0.275 -0.9,-0.0183 -2,0.57037 -1.1,0.5887 -2,1.29537 -2,1.57037 0,0.275 0.9,0.0183 2,-0.57037 1.1,-0.5887 2,-1.29537 2,-1.57037 z M 413.23676,521.8424 c -0.78174,-3.00913 -0.92721,-3.11805 -1.45892,-1.0924 -0.32483,1.2375 -0.18273,2.25 0.31578,2.25 0.49851,0 0.94191,1.0125 0.98533,2.25 0.0434,1.2375 0.29206,1.72908 0.55253,1.0924 0.26047,-0.63668 0.0829,-2.66168 -0.39472,-4.5 z M 577.5,524 c 0.99549,-1.1 1.58498,-2 1.30998,-2 -0.275,0 -1.31449,0.9 -2.30998,2 -0.99549,1.1 -1.58498,2 -1.30998,2 0.275,0 1.31449,-0.9 2.30998,-2 z m 31.16228,-1.25 c -0.27741,-0.6875 -0.50439,-0.125 -0.50439,1.25 0,1.375 0.22698,1.9375 0.50439,1.25 0.27741,-0.6875 0.27741,-1.8125 0,-2.5 z m -231.32492,-5.5027 c -2.28946,-2.06102 -4.63827,-4.6473 -5.2196,-5.7473 -0.65831,-1.24568 -1.06841,-1.4639 -1.08735,-0.57858 -0.0303,1.41591 8.34352,10.08102 9.73715,10.07588 0.40284,-0.001 -1.14075,-1.68899 -3.4302,-3.75 z M 582,518.5 c 1.29175,-1.375 1.93269,-2.48586 1.42431,-2.46858 C 582.56926,516.06049 578.4482,521 579.279,521 c 0.20481,0 1.42925,-1.125 2.721,-2.5 z m 27.66228,-0.75 c -0.27741,-0.6875 -0.50439,-0.125 -0.50439,1.25 0,1.375 0.22698,1.9375 0.50439,1.25 0.27741,-0.6875 0.27741,-1.8125 0,-2.5 z m 36.90063,-1 2.93709,-3.25 -3.25,2.93709 C 643.22054,519.17487 642.54035,520 643.31291,520 c 0.1721,0 1.6346,-1.4625 3.25,-3.25 z m -234.90063,-2 c -0.27741,-0.6875 -0.50439,-0.125 -0.50439,1.25 0,1.375 0.22698,1.9375 0.50439,1.25 0.27741,-0.6875 0.27741,-1.8125 0,-2.5 z m 199,-2 c -0.27741,-0.6875 -0.50439,-0.125 -0.50439,1.25 0,1.375 0.22698,1.9375 0.50439,1.25 0.27741,-0.6875 0.27741,-1.8125 0,-2.5 z m -200,-4 c -0.27741,-0.6875 -0.50439,-0.125 -0.50439,1.25 0,1.375 0.22698,1.9375 0.50439,1.25 0.27741,-0.6875 0.27741,-1.8125 0,-2.5 z m 201.03071,-1.48097 c -0.25354,-0.97297 -0.47766,-0.41903 -0.49804,1.23097 -0.0204,1.65 0.18706,2.44606 0.46099,1.76903 0.27392,-0.67703 0.29059,-2.02703 0.0371,-3 z M 370.68311,506.8125 c -0.31922,-0.79773 -0.55618,-0.56078 -0.60416,0.60417 -0.0434,1.05416 0.19293,1.64479 0.52522,1.3125 0.33229,-0.33229 0.36781,-1.1948 0.0789,-1.91667 z M 591.5,507 c 0.99549,-1.1 1.58498,-2 1.30998,-2 -0.275,0 -1.31449,0.9 -2.30998,2 -0.99549,1.1 -1.58498,2 -1.30998,2 0.275,0 1.31449,-0.9 2.30998,-2 z m 62.84932,-8 c 0.50545,-3.02558 0.38896,-2.90494 -0.85937,0.89006 -2.17135,6.60101 -2.63529,8.97282 -1.09734,5.60994 0.7546,-1.65 1.63512,-4.575 1.95671,-6.5 z m -244.68704,4.75 c -0.27741,-0.6875 -0.50439,-0.125 -0.50439,1.25 0,1.375 0.22698,1.9375 0.50439,1.25 0.27741,-0.6875 0.27741,-1.8125 0,-2.5 z m -39.97917,-0.9375 c -0.31922,-0.79773 -0.55618,-0.56078 -0.60416,0.60417 -0.0434,1.05416 0.19293,1.64479 0.52522,1.3125 0.33229,-0.33229 0.36781,-1.1948 0.0789,-1.91667 z m 243.00988,-1.54347 c -0.25354,-0.97297 -0.47766,-0.41903 -0.49804,1.23097 -0.0204,1.65 0.18706,2.44606 0.46099,1.76903 0.27392,-0.67703 0.29059,-2.02703 0.0371,-3 z m -204.27632,-5.1857 c -0.37576,-2.83258 -0.89442,-4.93892 -1.15258,-4.68076 -0.25816,0.25816 -0.152,2.777 0.23591,5.59743 0.38791,2.82043 0.90657,4.92677 1.15257,4.68076 0.24601,-0.24601 0.13985,-2.76485 -0.2359,-5.59743 z m -39.73356,2.72917 c -0.31922,-0.79773 -0.55618,-0.56078 -0.60416,0.60417 -0.0434,1.05416 0.19293,1.64479 0.52522,1.3125 0.33229,-0.33229 0.36781,-1.1948 0.0789,-1.91667 z m 245,-2 c -0.31922,-0.79773 -0.55618,-0.56078 -0.60416,0.60417 -0.0434,1.05416 0.19293,1.64479 0.52522,1.3125 0.33229,-0.33229 0.36781,-1.1948 0.0789,-1.91667 z m -64.01644,-1.26851 c 0,-0.80081 -0.38234,-1.21971 -0.84965,-0.9309 -0.4673,0.28881 -0.59075,0.94401 -0.27431,1.45601 0.80862,1.30838 1.12396,1.16106 1.12396,-0.52511 z M 366.68311,491.8125 c -0.31922,-0.79773 -0.55618,-0.56078 -0.60416,0.60417 -0.0434,1.05416 0.19293,1.64479 0.52522,1.3125 0.33229,-0.33229 0.36781,-1.1948 0.0789,-1.91667 z M 609.16586,486.75 c 3.23489,-4.51496 1.45549,-3.12271 -3.19519,2.5 -2.47071,2.98711 -3.14258,4.17243 -1.55877,2.75 1.531,-1.375 3.67028,-3.7375 4.75396,-5.25 z m 6.59751,-0.75 c 0,-2.23001 -0.0824,-2.17601 -0.76337,0.5 -0.41985,1.65 -0.76337,4.125 -0.76337,5.5 0,2.23001 0.0824,2.17601 0.76337,-0.5 0.41985,-1.65 0.76337,-4.125 0.76337,-5.5 z m 40.91974,3.8125 c -0.31922,-0.79773 -0.55618,-0.56078 -0.60416,0.60417 -0.0434,1.05416 0.19293,1.64479 0.52522,1.3125 0.33229,-0.33229 0.36781,-1.1948 0.0789,-1.91667 z M 406.66228,486.75 c -0.27741,-0.6875 -0.50439,-0.125 -0.50439,1.25 0,1.375 0.22698,1.9375 0.50439,1.25 0.27741,-0.6875 0.27741,-1.8125 0,-2.5 z m 251.02083,-0.9375 c -0.31922,-0.79773 -0.55618,-0.56078 -0.60416,0.60417 -0.0434,1.05416 0.19293,1.64479 0.52522,1.3125 0.33229,-0.33229 0.36781,-1.1948 0.0789,-1.91667 z m -293,-1 c -0.31922,-0.79773 -0.55618,-0.56078 -0.60416,0.60417 -0.0434,1.05416 0.19293,1.64479 0.52522,1.3125 0.33229,-0.33229 0.36781,-1.1948 0.0789,-1.91667 z m 19.69845,-1.36444 c 0.34149,-0.88992 0.17385,-1.29132 -0.39301,-0.94098 -0.5437,0.33602 -0.98855,1.0344 -0.98855,1.55194 0,1.43843 0.71677,1.12146 1.38156,-0.61096 z M 489,483.62244 c 0,-0.20765 -0.6853,-0.9463 -1.52289,-1.64144 -1.27335,-1.05678 -1.41968,-0.99492 -0.89301,0.37756 0.53789,1.40173 2.4159,2.38422 2.4159,1.26388 z M 659.85943,479 c 0,-0.94548 -0.31771,-0.76064 -0.85943,0.5 -0.47269,1.1 -0.85943,2.675 -0.85943,3.5 0,0.94548 0.31771,0.76064 0.85943,-0.5 0.47269,-1.1 0.85943,-2.675 0.85943,-3.5 z m -297.17632,-1.1875 c -0.31922,-0.79773 -0.55618,-0.56078 -0.60416,0.60417 -0.0434,1.05416 0.19293,1.64479 0.52522,1.3125 0.33229,-0.33229 0.36781,-1.1948 0.0789,-1.91667 z m 131.84335,-0.61937 c -0.30789,-0.30789 -1.11479,-6.4e-4 -1.79313,0.68278 -0.98026,0.98762 -0.8654,1.10248 0.5598,0.5598 0.98622,-0.37553 1.54122,-0.93469 1.23333,-1.24258 z m 166.15665,-2.38063 c -0.31922,-0.79773 -0.55618,-0.56078 -0.60416,0.60417 -0.0434,1.05416 0.19293,1.64479 0.52522,1.3125 0.33229,-0.33229 0.36781,-1.1948 0.0789,-1.91667 z m -299.25454,-2.24107 c -0.36782,-1.46551 -0.86162,-2.47171 -1.09733,-2.236 -0.23572,0.23572 -0.12763,1.62763 0.24019,3.09314 0.36782,1.46551 0.86162,2.47171 1.09733,2.236 0.23572,-0.23572 0.12763,-1.62763 -0.24019,-3.09314 z M 662.83003,467 c 0.018,-0.91898 -0.3035,-0.72531 -0.83003,0.5 -0.47269,1.1 -0.8462,2.9 -0.83003,4 0.0236,1.60779 0.1864,1.50973 0.83003,-0.5 0.44035,-1.375 0.81387,-3.175 0.83003,-4 z m -304.14692,-3.1875 c -0.31922,-0.79773 -0.55618,-0.56078 -0.60416,0.60417 -0.0434,1.05416 0.19293,1.64479 0.52522,1.3125 0.33229,-0.33229 0.36781,-1.1948 0.0789,-1.91667 z m 181.26108,-8.13982 c 0.0307,-0.45503 -2.41919,1.28713 -5.44419,3.87147 -3.025,2.58434 -5.5,4.89041 -5.5,5.1246 0,0.78934 10.88781,-8.16038 10.94419,-8.99607 z M 665.83373,455.5 c -0.007,-1.1 -0.63865,0.25 -1.40386,3 -0.76521,2.75 -1.35279,5.45 -1.30573,6 0.1448,1.69231 2.72297,-6.87115 2.70959,-9 z m -299.70964,5.23333 c -0.98762,-0.98026 -1.10248,-0.8654 -0.5598,0.5598 0.37553,0.98622 0.93469,1.54122 1.24258,1.23333 0.30789,-0.30789 6.4e-4,-1.11479 -0.68278,-1.79313 z m -9.20742,-4.15 c -0.64537,-2.56297 -1.36089,-4.47244 -1.59006,-4.24328 -0.22916,0.22917 0.11136,2.51365 0.75672,5.07662 0.64537,2.56297 1.36089,4.47244 1.59006,4.24328 0.22916,-0.22917 -0.11136,-2.51365 -0.75672,-5.07662 z m 79.8902,2.89021 c -0.30789,-0.30789 -0.86705,0.24711 -1.24258,1.23333 -0.54268,1.4252 -0.42782,1.54006 0.5598,0.5598 0.68342,-0.67834 0.99067,-1.48524 0.68278,-1.79313 z m 46.70744,-1.94294 c -2.74213,-2.4159 -5.18998,-4.18826 -5.43967,-3.93857 -0.24969,0.24968 0.55599,1.16138 1.7904,2.02599 1.2344,0.86461 3.45725,2.64004 4.93966,3.9454 1.48242,1.30536 2.9203,2.37031 3.1953,2.36656 0.275,-0.004 -1.74356,-1.98347 -4.48569,-4.39938 z m 68.23119,-10.89317 c 0.96498,-1.1165 -1.058,0.14971 -4.4955,2.8138 -3.4375,2.66409 -6.25,5.03038 -6.25,5.25842 0,0.73554 8.93296,-5.97507 10.7455,-8.07222 z m -186.56251,2.20865 c 3.76338,-1.73465 6.68163,-3.31479 6.485,-3.51142 -0.19663,-0.19664 -3.68987,1.19329 -7.76275,3.08872 -4.07288,1.89544 -6.99113,3.47558 -6.485,3.51143 0.50614,0.0359 3.99938,-1.35407 7.76275,-3.08873 z M 665,451.60699 c 0,-0.21616 -0.69837,-0.661 -1.55194,-0.98855 -0.88992,-0.34149 -1.29132,-0.17385 -0.94098,0.39301 0.58726,0.95021 2.49292,1.40545 2.49292,0.59554 z M 619,450 c 0,-0.55 -0.19844,-1 -0.44098,-1 -0.24254,0 -0.7191,0.45 -1.05902,1 -0.33992,0.55 -0.14148,1 0.44098,1 0.58246,0 1.05902,-0.45 1.05902,-1 z m 35,-3.5 c -1.375,-0.78602 -2.95,-1.42913 -3.5,-1.42913 -0.55,0 0.125,0.64311 1.5,1.42913 1.375,0.78602 2.95,1.42913 3.5,1.42913 0.55,0 -0.125,-0.64311 -1.5,-1.42913 z m -190,-4.49199 -3.5,-2.93818 -37.40385,-0.0221 c -20.57211,-0.0122 -37.17413,0.20763 -36.89336,0.48839 0.28076,0.28076 17.11249,0.5238 37.40384,0.54008 l 36.89337,0.0296 3,2.44214 c 1.65,1.34317 3.225,2.43227 3.5,2.4202 0.275,-0.0121 -1.075,-1.34412 -3,-2.96012 z M 647,443.5 c -1.375,-0.78602 -2.95,-1.42913 -3.5,-1.42913 -0.55,0 0.125,0.64311 1.5,1.42913 1.375,0.78602 2.95,1.42913 3.5,1.42913 0.55,0 -0.125,-0.64311 -1.5,-1.42913 z M 381.5,442 c 1.31874,-0.56668 1.48906,-0.87815 0.5,-0.9144 -0.825,-0.0302 -2.175,0.38124 -3,0.9144 -1.82797,1.18132 -0.24909,1.18132 2.5,0 z m 254.31091,-2.47757 C 636.09824,439.23509 619.18489,439 598.22568,439 c -20.9592,0 -38.31625,0.3375 -38.57121,0.75 -0.51396,0.83153 75.32396,0.6049 76.15644,-0.22757 z M 388.07895,380.41667 c 0.048,-1.16495 0.28494,-1.4019 0.60416,-0.60417 0.28887,0.72187 0.25335,1.58438 -0.0789,1.91667 -0.33229,0.33229 -0.56864,-0.25834 -0.52522,-1.3125 z M 388.232,365 c 0,-1.925 0.2058,-2.7125 0.45733,-1.75 0.25152,0.9625 0.25152,2.5375 0,3.5 -0.25153,0.9625 -0.45733,0.175 -0.45733,-1.75 z m 0.0202,-7.5 c 0.0111,-2.2 0.21589,-2.98225 0.45508,-1.73834 0.23919,1.24391 0.23011,3.04391 -0.0202,4 -0.25029,0.95609 -0.446,-0.0617 -0.4349,-2.26166 z m 0,-16 c 0.0111,-2.2 0.21589,-2.98225 0.45508,-1.73834 0.23919,1.24391 0.23011,3.04391 -0.0202,4 -0.25029,0.95609 -0.446,-0.0617 -0.4349,-2.26166 z M 388.232,325 c 0,-1.925 0.2058,-2.7125 0.45733,-1.75 0.25152,0.9625 0.25152,2.5375 0,3.5 -0.25153,0.9625 -0.45733,0.175 -0.45733,-1.75 z"
         id="path2" />
    </g>
  </g>
</svg>
